<svg width="256" height="256" viewBox="0 0 256 256" fill="none" xmlns="http://www.w3.org/2000/svg">
<g id="Frame 1">
<rect id="Rectangle 10" x="102" y="80" width="20" height="96" rx="4" fill="#457B9D"/>
<rect id="Rectangle 12" x="158" y="88" width="16" height="80" rx="4" fill="#457B9D"/>
<rect id="Rectangle 13" x="176" y="92" width="12" height="72" rx="4" fill="#457B9D"/>
<rect id="Rectangle 14" x="192" y="96" width="20" height="64" rx="4" stroke="#457B9D" stroke-width="4"/>
<rect id="Rectangle 16" x="216" y="104" width="16" height="48" rx="4" fill="#457B9D"/>
<path id="Subtract" d="M2 80L0 80V80H2ZM53.9277 110.015L53.4771 108.066L53.4767 108.066L53.9277 110.015ZM53.5029 110.305L55.0205 111.607L55.052 111.571L55.0816 111.533L53.5029 110.305ZM38.0303 128.329L36.5127 127.026L36.463 127.084L36.4179 127.146L38.0303 128.329ZM37.6406 129.234L35.6771 128.854L35.677 128.855L37.6406 129.234ZM37.668 130.205L35.7382 130.73L35.7382 130.731L37.668 130.205ZM38.1045 130.938L36.7867 132.443L36.7869 132.443L38.1045 130.938ZM38.8145 131.209L38.8145 129.209L38.8057 129.209L38.8145 131.209ZM48.4648 131.209L48.4648 133.209L48.4726 133.209L48.4648 131.209ZM49.085 131.408L50.2482 129.781L50.2478 129.781L49.085 131.408ZM49.5234 131.967L51.3528 131.158L51.3527 131.158L49.5234 131.967ZM49.6807 132.755L51.6807 132.761L51.6807 132.76L49.6807 132.755ZM49.5186 133.595L47.657 132.864L47.6432 132.899L47.6308 132.934L49.5186 133.595ZM45.7959 144.232L43.9082 143.572L43.898 143.601L43.8887 143.63L45.7959 144.232ZM45.7676 144.815L43.8201 145.271L43.8202 145.271L45.7676 144.815ZM46.0322 145.246L44.8458 146.856L44.846 146.856L46.0322 145.246ZM46.4736 145.335L46.924 147.284L46.9247 147.283L46.4736 145.335ZM46.8994 145.045L45.3819 143.742L45.3501 143.779L45.3202 143.818L46.8994 145.045ZM62.3711 127.021L63.8886 128.324L63.9382 128.266L63.9833 128.205L62.3711 127.021ZM62.7607 126.115L64.7244 126.495L64.7244 126.495L62.7607 126.115ZM62.7334 125.146L64.6632 124.62L64.6632 124.62L62.7334 125.146ZM62.2979 124.411L63.6157 122.907L63.6156 122.907L62.2979 124.411ZM61.5869 124.141L61.5869 126.141L61.5957 126.141L61.5869 124.141ZM51.9375 124.141V122.141L51.9292 122.141L51.9375 124.141ZM51.3164 123.941L50.1529 125.568L50.1532 125.568L51.3164 123.941ZM50.8779 123.384L49.0487 124.192L49.0487 124.193L50.8779 123.384ZM50.7217 122.595L48.7217 122.589L48.7217 122.589L50.7217 122.595ZM50.8828 121.756L52.7445 122.487L52.7582 122.452L52.7705 122.417L50.8828 121.756ZM54.6064 111.118L56.4941 111.779L56.5043 111.75L56.5136 111.72L54.6064 111.118ZM54.6338 110.535L56.5814 110.08L56.5813 110.08L54.6338 110.535ZM54.3691 110.104L55.5558 108.495L55.5554 108.494L54.3691 110.104ZM90 72V74C93.3137 74 96 76.6863 96 80H98H100C100 74.4772 95.5229 70 90 70V72ZM98 80H96V176H98H100V80H98ZM98 176H96C96 179.314 93.3137 182 90 182V184V186C95.5228 186 100 181.523 100 176H98ZM90 184V182H10V184V186H90V184ZM10 184V182C6.68629 182 4 179.314 4 176H2H0C0 181.523 4.47715 186 10 186V184ZM2 176H4V80H2H0V176H2ZM2 80L4 80C4 76.6863 6.68629 74 10 74V72V70C4.47715 70 1.93277e-06 74.4772 0 80L2 80ZM10 72V74H90V72V70H10V72ZM53.9277 110.015L53.4767 108.066C52.7914 108.225 52.2686 108.634 51.9242 109.077L53.5029 110.305L55.0816 111.533C54.9726 111.673 54.7494 111.877 54.3788 111.963L53.9277 110.015ZM53.5029 110.305L51.9854 109.002L36.5127 127.026L38.0303 128.329L39.5478 129.632L55.0205 111.607L53.5029 110.305ZM38.0303 128.329L36.4179 127.146C36.0431 127.656 35.7945 128.248 35.6771 128.854L37.6406 129.234L39.6042 129.614C39.6153 129.557 39.6365 129.521 39.6427 129.512L38.0303 128.329ZM37.6406 129.234L35.677 128.855C35.5596 129.462 35.5693 130.11 35.7382 130.73L37.668 130.205L39.5978 129.68C39.6009 129.691 39.5991 129.69 39.5986 129.675C39.5982 129.66 39.5994 129.639 39.6042 129.614L37.6406 129.234ZM37.668 130.205L35.7382 130.731C35.9073 131.351 36.2444 131.968 36.7867 132.443L38.1045 130.938L39.4222 129.434C39.5587 129.554 39.5929 129.662 39.5977 129.68L37.668 130.205ZM38.1045 130.938L36.7869 132.443C37.3421 132.929 38.0554 133.212 38.8232 133.209L38.8145 131.209L38.8057 129.209C39.0516 129.208 39.2728 129.303 39.4221 129.434L38.1045 130.938ZM38.8145 131.209V133.209H48.4648V131.209V129.209H38.8145V131.209ZM48.4648 131.209L48.4726 133.209C48.2688 133.21 48.0735 133.144 47.9221 133.035L49.085 131.408L50.2478 129.781C49.7278 129.409 49.1066 129.206 48.4571 129.209L48.4648 131.209ZM49.085 131.408L47.9217 133.035C47.7757 132.931 47.7144 132.821 47.6942 132.775L49.5234 131.967L51.3527 131.158C51.1251 130.643 50.7632 130.149 50.2482 129.781L49.085 131.408ZM49.5234 131.967L47.6941 132.775C47.6836 132.751 47.6805 132.737 47.68 132.735C47.6795 132.732 47.6807 132.737 47.6807 132.749L49.6807 132.755L51.6807 132.76C51.6821 132.223 51.5797 131.672 51.3528 131.158L49.5234 131.967ZM49.6807 132.755L47.6807 132.749C47.6806 132.778 47.6739 132.821 47.657 132.864L49.5186 133.595L51.3802 134.326C51.5735 133.833 51.6791 133.299 51.6807 132.761L49.6807 132.755ZM49.5186 133.595L47.6308 132.934L43.9082 143.572L45.7959 144.232L47.6836 144.893L51.4063 134.255L49.5186 133.595ZM45.7959 144.232L43.8887 143.63C43.7288 144.137 43.6885 144.708 43.8201 145.271L45.7676 144.815L47.715 144.36C47.7605 144.554 47.7409 144.715 47.7031 144.835L45.7959 144.232ZM45.7676 144.815L43.8202 145.271C43.95 145.826 44.2649 146.428 44.8458 146.856L46.0322 145.246L47.2187 143.636C47.5431 143.875 47.6713 144.173 47.715 144.36L45.7676 144.815ZM46.0322 145.246L44.846 146.856C45.4588 147.308 46.2157 147.447 46.924 147.284L46.4736 145.335L46.0232 143.386C46.4168 143.295 46.8622 143.373 47.2185 143.636L46.0322 145.246ZM46.4736 145.335L46.9247 147.283C47.6055 147.126 48.1305 146.72 48.4786 146.272L46.8994 145.045L45.3202 143.818C45.4329 143.673 45.6566 143.471 46.0226 143.386L46.4736 145.335ZM46.8994 145.045L48.417 146.348L63.8886 128.324L62.3711 127.021L60.8535 125.719L45.3819 143.742L46.8994 145.045ZM62.3711 127.021L63.9833 128.205C64.3593 127.693 64.6073 127.1 64.7244 126.495L62.7607 126.115L60.7971 125.735C60.7858 125.794 60.7642 125.831 60.7589 125.838L62.3711 127.021ZM62.7607 126.115L64.7244 126.495C64.8418 125.888 64.832 125.241 64.6632 124.62L62.7334 125.146L60.8036 125.671C60.8006 125.66 60.8023 125.661 60.8027 125.675C60.8031 125.689 60.802 125.71 60.7971 125.736L62.7607 126.115ZM62.7334 125.146L64.6632 124.62C64.4959 124.006 64.1623 123.386 63.6157 122.907L62.2979 124.411L60.98 125.916C60.8393 125.792 60.8067 125.682 60.8036 125.671L62.7334 125.146ZM62.2979 124.411L63.6156 122.907C63.0587 122.419 62.344 122.137 61.5782 122.141L61.5869 124.141L61.5957 126.141C61.3518 126.142 61.1311 126.048 60.9801 125.916L62.2979 124.411ZM61.5869 124.141V122.141H51.9375V124.141V126.141H61.5869V124.141ZM51.9375 124.141L51.9292 122.141C52.1313 122.14 52.3267 122.205 52.4796 122.314L51.3164 123.941L50.1532 125.568C50.6751 125.941 51.2976 126.143 51.9458 126.141L51.9375 124.141ZM51.3164 123.941L52.4799 122.315C52.6231 122.417 52.6853 122.526 52.7071 122.575L50.8779 123.384L49.0487 124.193C49.2778 124.711 49.641 125.202 50.1529 125.568L51.3164 123.941ZM50.8779 123.384L52.7072 122.575C52.7189 122.602 52.7221 122.617 52.7226 122.62C52.7231 122.622 52.7216 122.616 52.7217 122.601L50.7217 122.595L48.7217 122.589C48.7201 123.121 48.8194 123.674 49.0487 124.192L50.8779 123.384ZM50.7217 122.595L52.7217 122.601C52.7218 122.569 52.7289 122.526 52.7445 122.487L50.8828 121.756L49.0211 121.025C48.8266 121.521 48.7233 122.054 48.7217 122.589L50.7217 122.595ZM50.8828 121.756L52.7705 122.417L56.4941 111.779L54.6064 111.118L52.7188 110.457L48.9951 121.095L50.8828 121.756ZM54.6064 111.118L56.5136 111.72C56.6757 111.207 56.7111 110.636 56.5814 110.08L54.6338 110.535L52.6862 110.99C52.6424 110.803 52.6591 110.643 52.6993 110.516L54.6064 111.118ZM54.6338 110.535L56.5813 110.08C56.4513 109.524 56.1363 108.922 55.5558 108.495L54.3691 110.104L53.1825 111.714C52.8585 111.476 52.7301 111.178 52.6863 110.991L54.6338 110.535ZM54.3691 110.104L55.5554 108.494C54.9501 108.048 54.1948 107.9 53.4771 108.066L53.9277 110.015L54.3784 111.963C53.9754 112.056 53.5317 111.972 53.1829 111.715L54.3691 110.104Z" fill="#457B9D"/>
<path id="Subtract_2" d="M156 163.902C156 164.815 155.468 165.643 154.639 166.023L142.063 171.788C141.758 171.928 141.426 172 141.09 172C138.585 172 137.841 168.589 140.118 167.546L152.695 161.781C154.24 161.073 156 162.202 156 163.902ZM156 168C156 170.209 154.209 172 152 172C150.688 172 150.298 170.214 151.491 169.667L155.637 167.767C155.807 167.689 156 167.813 156 168ZM156 156.569C156 157.481 155.468 158.309 154.639 158.689L128.013 170.892C126.964 171.373 125.668 171.446 124.928 170.56C124.349 169.867 124 168.974 124 168C124 167.756 124.142 167.534 124.364 167.433L152.696 154.448C154.241 153.74 156 154.869 156 156.569ZM156 149.236C156 150.148 155.468 150.976 154.639 151.356L127.304 163.884C125.759 164.592 124 163.463 124 161.763C124 160.851 124.532 160.023 125.361 159.643L152.696 147.115C154.241 146.407 156 147.536 156 149.236ZM156 141.902C156 142.815 155.468 143.643 154.639 144.023L127.305 156.551C125.76 157.259 124 156.13 124 154.43C124 153.518 124.532 152.689 125.361 152.309L152.695 139.781C154.24 139.073 156 140.202 156 141.902ZM156 134.569C156 135.481 155.468 136.309 154.639 136.689L127.304 149.217C125.759 149.925 124 148.796 124 147.096C124 146.184 124.532 145.356 125.361 144.976L152.696 132.448C154.241 131.74 156 132.869 156 134.569ZM156 127.236C156 128.148 155.468 128.976 154.639 129.356L127.304 141.884C125.759 142.592 124 141.463 124 139.763C124 138.851 124.532 138.023 125.361 137.643L152.696 125.115C154.241 124.407 156 125.536 156 127.236ZM156 119.902C156 120.815 155.468 121.643 154.639 122.023L127.305 134.551C125.76 135.259 124 134.13 124 132.43C124 131.518 124.532 130.689 125.361 130.309L152.695 117.781C154.24 117.073 156 118.202 156 119.902ZM156 112.569C156 113.481 155.468 114.309 154.639 114.689L127.304 127.217C125.759 127.925 124 126.796 124 125.096C124 124.184 124.532 123.356 125.361 122.976L152.696 110.448C154.241 109.74 156 110.869 156 112.569ZM156 105.236C156 106.148 155.468 106.976 154.639 107.356L127.304 119.884C125.759 120.592 124 119.463 124 117.763C124 116.851 124.532 116.023 125.361 115.643L152.696 103.115C154.241 102.407 156 103.536 156 105.236ZM156 97.9023C156 98.8145 155.468 99.6431 154.639 100.023L127.305 112.551C125.76 113.259 124 112.13 124 110.43C124 109.518 124.532 108.689 125.361 108.309L152.695 95.7814C154.24 95.0731 156 96.2023 156 97.9023ZM154.945 87.4167C155.428 87.1953 156 87.4687 156 88V89.4986C156 91.0626 155.088 92.4832 153.667 93.1349L127.304 105.217C125.759 105.925 124 104.796 124 103.096C124 102.184 124.532 101.356 125.361 100.976L154.945 87.4167ZM152 84C153.584 84 153.392 85.9271 151.952 86.587L127.304 97.8839C125.759 98.592 124 97.4631 124 95.7634C124 94.8514 124.532 94.023 125.361 93.643L145.608 84.3637C146.131 84.1241 146.699 84 147.274 84H152ZM127.696 90.3717C125.968 91.1637 124 89.9009 124 88C124 87.2631 124.55 86.6804 125.22 86.3734L129.937 84.2121C130.242 84.0723 130.573 84 130.909 84C133.414 84 134.158 87.4104 131.88 88.454L127.696 90.3717Z" fill="#457B9D"/>
<path id="Rectangle 25" d="M124 130.472C124 127.499 127.129 125.565 129.789 126.894L153.789 138.894C155.144 139.572 156 140.957 156 142.472V168C156 170.209 154.209 172 152 172H128C125.791 172 124 170.209 124 168V130.472Z" fill="#457B9D"/>
<path id="Subtract_3" d="M256 138.552C256 139.33 255.611 140.057 254.963 140.489L238.705 151.328C238.048 151.766 237.276 152 236.486 152H236C235.767 152 235.539 151.98 235.317 151.942C233.286 151.592 233.78 149.014 235.495 147.871L252.38 136.614C253.927 135.583 256 136.692 256 138.552ZM256 146.552C256 147.33 255.611 148.057 254.963 148.489L250.284 151.609C249.901 151.864 249.452 152 248.992 152C246.689 152 245.784 149.012 247.701 147.734L252.38 144.615C253.927 143.583 256 144.692 256 146.552ZM256 130.552C256 131.33 255.611 132.057 254.963 132.489L235.62 145.385C234.073 146.416 232 145.307 232 143.447C232 142.669 232.389 141.942 233.037 141.51L252.38 128.614C253.927 127.583 256 128.692 256 130.552ZM256 122.552C256 123.33 255.611 124.057 254.963 124.489L235.62 137.385C234.073 138.416 232 137.307 232 135.447C232 134.669 232.389 133.942 233.037 133.51L252.38 120.614C253.927 119.583 256 120.692 256 122.552ZM256 114.552C256 115.33 255.611 116.057 254.963 116.489L235.62 129.385C234.073 130.416 232 129.307 232 127.447C232 126.669 232.389 125.942 233.037 125.51L252.38 112.614C253.927 111.583 256 112.692 256 114.552ZM251.551 105.167C252.521 104.52 253.807 104.247 254.674 105.026C254.893 105.223 255.091 105.445 255.263 105.686C256.078 106.833 255.278 108.279 254.108 109.059L235.62 121.385C234.073 122.416 232 121.307 232 119.447C232 118.669 232.389 117.942 233.037 117.51L251.551 105.167ZM235.62 113.385C234.073 114.416 232 113.307 232 111.447C232 110.669 232.389 109.942 233.037 109.51L240.716 104.391C241.099 104.136 241.548 104 242.008 104C244.311 104 245.216 106.988 243.299 108.265L235.62 113.385ZM234.142 106.369C233.258 106.959 232.244 106.259 232.924 105.442C233.658 104.561 234.764 104 236 104C236.508 104 236.708 104.659 236.285 104.941L234.142 106.369Z" fill="#457B9D"/>
</g>
</svg>
