<svg width="824" height="586" viewBox="0 0 824 586" fill="none" xmlns="http://www.w3.org/2000/svg">
<g id="Solar Enerji" filter="url(#filter0_di_0_1)">
<path d="M206.397 570C204.69 570 203.111 569.573 201.661 568.72C200.21 567.867 199.058 566.715 198.205 565.264C197.351 563.813 196.925 562.235 196.925 560.528V556.24H206.845V560.016H232.957V551.952H206.397C204.69 551.952 203.111 551.525 201.661 550.672C200.21 549.819 199.058 548.688 198.205 547.28C197.351 545.829 196.925 544.229 196.925 542.48V533.392C196.925 531.643 197.351 530.064 198.205 528.656C199.058 527.205 200.21 526.053 201.661 525.2C203.111 524.347 204.69 523.92 206.397 523.92H233.533C235.239 523.92 236.797 524.347 238.205 525.2C239.655 526.053 240.807 527.205 241.661 528.656C242.557 530.064 243.005 531.643 243.005 533.392V537.68H232.957V533.904H206.845V541.968H233.533C235.239 541.968 236.797 542.395 238.205 543.248C239.655 544.101 240.807 545.253 241.661 546.704C242.557 548.112 243.005 549.691 243.005 551.44V560.528C243.005 562.235 242.557 563.813 241.661 565.264C240.807 566.715 239.655 567.867 238.205 568.72C236.797 569.573 235.239 570 233.533 570H206.397ZM259.013 570C257.349 570 255.813 569.573 254.405 568.72C252.997 567.867 251.866 566.736 251.013 565.328C250.159 563.92 249.733 562.384 249.733 560.72V542.16C249.733 540.496 250.159 538.96 251.013 537.552C251.866 536.144 252.997 535.013 254.405 534.16C255.813 533.307 257.349 532.88 259.013 532.88H278.085C279.791 532.88 281.349 533.307 282.757 534.16C284.165 535.013 285.274 536.144 286.085 537.552C286.938 538.96 287.365 540.496 287.365 542.16V560.72C287.365 562.384 286.938 563.92 286.085 565.328C285.274 566.736 284.165 567.867 282.757 568.72C281.349 569.573 279.791 570 278.085 570H259.013ZM259.525 560.208H277.573V542.672H259.525V560.208ZM301.702 570C300.038 570 298.502 569.573 297.094 568.72C295.686 567.867 294.555 566.736 293.702 565.328C292.848 563.92 292.422 562.384 292.422 560.72V520.656H302.278V560.208H309.766V570H301.702ZM324.014 570C322.308 570 320.75 569.573 319.342 568.72C317.934 567.867 316.804 566.736 315.95 565.328C315.14 563.92 314.734 562.384 314.734 560.72V546.512H342.574V542.672H314.734V532.88H343.086C344.793 532.88 346.35 533.307 347.758 534.16C349.166 535.013 350.276 536.144 351.086 537.552C351.94 538.96 352.366 540.496 352.366 542.16V570H324.014ZM324.526 560.208H342.574V555.088H324.526V560.208ZM357.422 570V542.16C357.422 540.496 357.848 538.96 358.702 537.552C359.555 536.144 360.686 535.013 362.094 534.16C363.502 533.307 365.059 532.88 366.766 532.88H387.246V542.672H367.214V570H357.422ZM412.118 570V523.92H454.678V533.904H422.166V541.968H448.342V551.952H422.166V560.016H454.678V570H412.118ZM460.862 570V532.88H489.214C490.921 532.88 492.478 533.307 493.886 534.16C495.294 535.013 496.404 536.144 497.214 537.552C498.068 538.96 498.494 540.496 498.494 542.16V570H488.702V542.672H470.654V570H460.862ZM512.575 570C510.911 570 509.375 569.573 507.967 568.72C506.559 567.867 505.429 566.736 504.575 565.328C503.722 563.92 503.295 562.384 503.295 560.72V542.16C503.295 540.496 503.722 538.96 504.575 537.552C505.429 536.144 506.559 535.013 507.967 534.16C509.375 533.307 510.911 532.88 512.575 532.88H531.647C533.354 532.88 534.911 533.307 536.319 534.16C537.727 535.013 538.837 536.144 539.647 537.552C540.501 538.96 540.927 540.496 540.927 542.16V556.368H513.087V560.208H540.927V570H512.575ZM513.087 547.792H531.135V542.672H513.087V547.792ZM547.234 570V542.16C547.234 540.496 547.661 538.96 548.514 537.552C549.368 536.144 550.498 535.013 551.906 534.16C553.314 533.307 554.872 532.88 556.578 532.88H577.058V542.672H557.026V570H547.234ZM565.626 583.312V573.456H581.306V532.88H591.098V574.032C591.098 575.739 590.671 577.296 589.818 578.704C588.964 580.112 587.834 581.221 586.426 582.032C585.018 582.885 583.46 583.312 581.754 583.312H565.626ZM581.306 530.576V520.72H591.098V530.576H581.306ZM596.234 570V532.88H606.026V570H596.234ZM596.234 530.576V520.72H606.026V530.576H596.234Z" fill="#DDDDDD"/>
</g>
<g id="erfa" filter="url(#filter1_di_0_1)">
<path id="Vector" d="M600.901 508V500.333C605.875 500.333 610.121 499.738 613.639 498.55C617.278 497.242 620.251 495.816 622.556 494.27C624.982 492.725 626.741 491.358 627.833 490.169C629.046 488.862 629.653 488.208 629.653 488.208L675.874 430.258L670.779 424.017C669.444 422.353 668.11 420.986 666.776 419.916C665.441 418.727 663.682 417.836 661.498 417.242C659.315 416.528 656.16 416.172 652.036 416.172H639.297V408.505H728.647L803.984 500.333H822V508H704.808V500.333H716.819C719.245 500.333 721.247 499.857 722.824 498.906C724.522 497.836 725.371 496.351 725.371 494.449C725.371 491.833 723.976 488.802 721.186 485.355L715.545 478.401H647.486C644.696 483.037 643.301 487.079 643.301 490.526C643.301 493.617 644.332 496.053 646.394 497.836C648.578 499.501 651.247 500.333 654.401 500.333H669.323V508H600.901ZM749.756 500.333H760.674L691.524 416.172H680.424L749.756 500.333ZM653.309 471.09H709.54L680.97 436.142L653.309 471.09Z" fill="#646464"/>
<path id="Vector_2" d="M443.898 508V500.308H462.102C466.379 500.308 470.02 499.115 473.025 496.73C476.03 494.345 477.533 490.23 477.533 484.386V431.971C477.533 427.559 476.03 423.802 473.025 420.701C470.02 417.481 466.379 415.871 462.102 415.871H443.898V408.179H612.07V437.696H607.389C605.424 435.191 603.112 432.687 600.454 430.182C597.796 427.559 594.386 425.174 590.225 423.027C586.18 420.88 581.036 419.151 574.795 417.839C568.669 416.527 561.098 415.871 552.083 415.871C547.113 415.871 543.183 417.243 540.294 419.986C537.52 422.609 536.133 426.008 536.133 430.182V437.517C536.133 440.618 536.942 443.599 538.56 446.462C540.294 449.205 543.588 450.576 548.442 450.576C554.684 450.576 560.058 449.205 564.566 446.462C569.189 443.599 572.714 440.32 575.142 436.623H581.383V475.621H574.968C572.541 469.658 569.074 465.662 564.566 463.635C560.058 461.488 554.684 460.415 548.442 460.415C543.588 460.415 540.294 461.787 538.56 464.53C536.942 467.273 536.133 470.254 536.133 473.474V485.281C536.133 490.767 537 494.643 538.733 496.909C540.467 499.175 543.53 500.308 547.922 500.308H568.207V508H443.898ZM488.455 500.308H497.124V415.871H488.455V500.308Z" fill="#646464"/>
<path id="Vector_3" d="M207.203 508V500.308H225.581C229.973 500.308 233.672 499.115 236.677 496.73C239.682 494.345 241.184 490.23 241.184 484.386V431.971C241.184 427.559 239.682 423.802 236.677 420.701C233.672 417.481 229.973 415.871 225.581 415.871H207.203V408.179C207.203 408.179 209.11 408.179 212.925 408.179C216.739 408.179 221.882 408.179 228.355 408.179C234.943 408.179 242.398 408.179 250.72 408.179C259.042 408.179 267.826 408.179 277.073 408.179C286.319 408.06 295.508 408 304.639 408C313.77 408 322.381 408 330.472 408C338.678 408 345.844 408 351.97 408C358.211 408 362.892 408 366.013 408C371.445 408 377.167 408.298 383.177 408.894C389.303 409.491 395.024 410.743 400.341 412.651C405.658 414.559 409.992 417.422 413.344 421.238C416.696 424.935 418.372 429.944 418.372 436.265C418.372 441.989 416.638 446.581 413.17 450.039C409.819 453.379 405.369 455.943 399.821 457.732C394.273 459.521 388.205 460.773 381.617 461.488C375.028 462.085 368.556 462.442 362.199 462.562V463.635C364.279 465.424 367.862 467.511 372.948 469.896C378.149 472.162 384.333 473.891 391.499 475.084L411.09 500.308H428.947V508H340.874L311.227 468.823C311.227 468.823 310.765 468.346 309.84 467.392C309.031 466.318 308.049 465.305 306.893 464.351C305.737 463.277 304.581 462.741 303.425 462.741C301.576 462.741 300.478 463.575 300.131 465.245C299.9 466.915 299.785 469.538 299.785 473.116V484.386C299.785 490.23 301.287 494.345 304.292 496.73C307.297 499.115 310.938 500.308 315.215 500.308H326.484V508H207.203ZM251.934 500.308H260.776V415.871H251.934V500.308ZM323.016 453.975C327.177 453.975 331.107 453.438 334.806 452.365C338.62 451.172 341.683 449.324 343.995 446.819C346.422 444.196 347.635 440.737 347.635 436.444C347.635 432.508 346.769 429.228 345.035 426.605C343.417 423.981 341.336 421.894 338.793 420.343C336.251 418.793 333.65 417.66 330.992 416.945C328.333 416.229 326.022 415.871 324.057 415.871H306.719C304.87 415.871 303.252 416.587 301.865 418.018C300.478 419.449 299.785 421.178 299.785 423.206V444.673C299.785 446.342 300.883 447.893 303.079 449.324C305.39 450.755 308.28 451.888 311.747 452.723C315.33 453.558 319.087 453.975 323.016 453.975ZM359.078 455.943C362.43 454.392 365.32 451.769 367.747 448.072C370.29 444.374 371.561 440.499 371.561 436.444C371.561 432.27 370.29 428.394 367.747 424.816C365.32 421.119 362.43 418.495 359.078 416.945L358.385 417.481C359.887 420.105 360.87 423.086 361.332 426.426C361.91 429.646 362.199 432.985 362.199 436.444C362.199 439.783 361.91 443.122 361.332 446.462C360.87 449.682 359.887 452.663 358.385 455.406L359.078 455.943ZM348.156 500.308H359.078C354.455 493.987 349.774 487.726 345.035 481.524C340.296 475.203 335.557 468.942 330.818 462.741H319.722L348.156 500.308Z" fill="#646464"/>
<path id="Vector_4" d="M2 508V500.308H20.2042C24.5963 500.308 28.2371 499.175 31.1267 496.909C34.1318 494.524 35.6344 490.409 35.6344 484.565V431.792C35.6344 427.499 34.1318 423.802 31.1267 420.701C28.2371 417.481 24.5963 415.871 20.2042 415.871H2V408.179H180.748V443.957H175.72C172.599 439.544 168.207 435.191 162.543 430.898C156.996 426.605 149.887 423.027 141.219 420.165C132.666 417.302 122.321 415.871 110.185 415.871C105.215 415.871 101.285 417.243 98.3954 419.986C95.6215 422.609 94.2345 426.008 94.2345 430.182V437.338C94.2345 440.439 95.0435 443.42 96.6617 446.283C98.2798 449.026 101.574 450.397 106.544 450.397C110.82 450.397 115.386 449.562 120.24 447.893C125.095 446.104 129.487 443.719 133.417 440.737C137.462 437.756 140.294 434.535 141.912 431.077H148.327V478.304H141.912C140.294 474.488 137.462 471.268 133.417 468.644C129.487 465.901 125.095 463.874 120.24 462.562C115.386 461.131 110.82 460.415 106.544 460.415C101.574 460.415 98.2798 461.787 96.6617 464.53C95.0435 467.273 94.2345 470.254 94.2345 473.474V485.46C94.2345 489.872 95.1013 493.45 96.8351 496.193C98.5688 498.936 101.632 500.308 106.024 500.308H119.374C125.731 500.308 132.319 499.652 139.138 498.34C145.957 496.909 152.546 494.345 158.903 490.648C165.26 486.951 170.865 481.643 175.72 474.726H180.748V508H2ZM46.3835 500.308H55.2255V415.871H46.3835V500.308Z" fill="#646464"/>
</g>
<mask id="mask0_0_1" style="mask-type:alpha" maskUnits="userSpaceOnUse" x="2" y="-1" width="800" height="393">
<path id="mask" d="M2 -1H802V392H2V-1Z" fill="black"/>
</mask>
<g mask="url(#mask0_0_1)">
<g id="evler">
<g id="Vector 18" filter="url(#filter2_ii_0_1)">
<path d="M308.586 378.5H284.407C283.517 378.5 283.07 377.425 283.698 376.794L398.288 261.715C398.68 261.321 399.318 261.322 399.709 261.718L513.319 376.797C513.943 377.429 513.495 378.5 512.608 378.5H490.909C490.647 378.5 490.395 378.397 490.208 378.213L399.707 289.195C399.316 288.81 398.687 288.813 398.299 289.201L309.293 378.207C309.105 378.395 308.851 378.5 308.586 378.5Z" fill="url(#paint0_linear_0_1)"/>
</g>
<g id="Polygon 1" filter="url(#filter3_ii_0_1)">
<path d="M591.286 289.596C592.146 289.559 592.648 290.554 592.107 291.224L524.694 374.641C524.323 375.101 523.635 375.139 523.214 374.724L445.132 297.611C444.51 296.998 444.919 295.939 445.791 295.901L591.286 289.596Z" fill="url(#paint1_linear_0_1)"/>
</g>
<g id="ev kenar" filter="url(#filter4_ii_0_1)">
<path d="M670.76 391.342C670.34 391.701 669.709 391.652 669.35 391.232L593.999 303.137C593.692 302.778 593.678 302.253 593.965 301.878L599.358 294.84C599.742 294.339 600.489 294.315 600.904 294.79L678.453 383.431C678.82 383.85 678.774 384.488 678.351 384.849L670.76 391.342Z" fill="url(#paint2_linear_0_1)"/>
</g>
<g id="Polygon 2" filter="url(#filter5_ii_0_1)">
<path d="M207.657 289.197C206.797 289.159 206.295 290.154 206.836 290.824L274.249 374.241C274.621 374.702 275.309 374.74 275.729 374.324L353.812 297.212C354.433 296.598 354.025 295.539 353.152 295.501L207.657 289.197Z" fill="url(#paint3_linear_0_1)"/>
</g>
<g id="ev kenar_2" filter="url(#filter6_ii_0_1)">
<path d="M129.359 391.342C129.779 391.701 130.41 391.652 130.769 391.232L206.121 303.137C206.428 302.778 206.442 302.253 206.154 301.878L200.761 294.84C200.377 294.339 199.631 294.315 199.215 294.79L121.666 383.431C121.299 383.85 121.345 384.488 121.768 384.849L129.359 391.342Z" fill="url(#paint4_linear_0_1)"/>
</g>
<g id="Rectangle 2" filter="url(#filter7_f_0_1)">
<path d="M386 344C386 336.82 391.82 331 399 331V331C406.18 331 412 336.82 412 344V366H386V344Z" fill="black"/>
</g>
<g id="Polygon 3" filter="url(#filter8_ii_0_1)">
<path d="M399 297L440 337L399 305L358 337L399 297Z" fill="#AAAAAA"/>
</g>
<g id="Rectangle 3" filter="url(#filter9_f_0_1)">
<rect x="382" y="366" width="34" height="2" rx="1" fill="black"/>
</g>
<g id="Rectangle 4" filter="url(#filter10_f_0_1)">
<rect x="382" y="366" width="34" height="2" rx="1" fill="#AAAAAA"/>
</g>
<g id="Rectangle 5" filter="url(#filter11_f_0_1)">
<rect x="386" y="350" width="12" height="15" rx="1" fill="#AAAAAA"/>
</g>
<g id="Rectangle 6" filter="url(#filter12_f_0_1)">
<rect x="400" y="350" width="12" height="15" rx="1" fill="#AAAAAA"/>
</g>
<g id="Rectangle 6_2" filter="url(#filter13_f_0_1)">
<path d="M412 343.077C412 336.959 407.041 332 400.923 332V332C400.413 332 400 332.413 400 332.923V347C400 347.552 400.448 348 401 348H411C411.552 348 412 347.552 412 347V343.077Z" fill="#AAAAAA"/>
</g>
<g id="Rectangle 5_2" filter="url(#filter14_f_0_1)">
<path d="M386 343.077C386 336.959 390.959 332 397.077 332V332C397.587 332 398 332.413 398 332.923V347C398 347.552 397.552 348 397 348H387C386.448 348 386 347.552 386 347V343.077Z" fill="#AAAAAA"/>
</g>
<g id="Rectangle 2_2" filter="url(#filter15_f_0_1)">
<rect x="201" y="339" width="20" height="20" rx="2" fill="black"/>
</g>
<g id="Rectangle 7" filter="url(#filter16_iif_0_1)">
<rect x="212" y="350" width="8" height="8" rx="1" fill="#AAAAAA"/>
</g>
<g id="Rectangle 8" filter="url(#filter17_iif_0_1)">
<rect x="212" y="340" width="8" height="8" rx="1" fill="#AAAAAA"/>
</g>
<g id="Rectangle 9" filter="url(#filter18_iif_0_1)">
<rect x="202" y="340" width="8" height="8" rx="1" fill="#AAAAAA"/>
</g>
<g id="Rectangle 10" filter="url(#filter19_iif_0_1)">
<rect x="202" y="350" width="8" height="8" rx="1" fill="#AAAAAA"/>
</g>
<g id="Rectangle 2_3" filter="url(#filter20_f_0_1)">
<rect x="578" y="340" width="20" height="20" rx="2" fill="black"/>
</g>
<g id="Rectangle 7_2" filter="url(#filter21_iif_0_1)">
<rect x="589" y="351" width="8" height="8" rx="1" fill="#AAAAAA"/>
</g>
<g id="Rectangle 8_2" filter="url(#filter22_iif_0_1)">
<rect x="589" y="341" width="8" height="8" rx="1" fill="#AAAAAA"/>
</g>
<g id="Rectangle 9_2" filter="url(#filter23_iif_0_1)">
<rect x="579" y="341" width="8" height="8" rx="1" fill="#AAAAAA"/>
</g>
<g id="Rectangle 10_2" filter="url(#filter24_iif_0_1)">
<rect x="579" y="351" width="8" height="8" rx="1" fill="#AAAAAA"/>
</g>
</g>
<g id="sun">
<g id="Tentacles">
<g id="Vector 9">
<path id="Vector_5" d="M385.328 231.667C388.882 234.432 391.036 235.505 395.182 235.749C390.197 238.508 383.401 254.343 373.928 273.127C377.311 258.562 376.916 253.883 385.328 231.667Z" fill="#FFDA10"/>
<g id="Mask group">
<mask id="mask1_0_1" style="mask-type:luminance" maskUnits="userSpaceOnUse" x="373" y="231" width="23" height="43">
<g id="Group">
<path id="Vector_6" d="M385.328 231.667C388.882 234.432 391.036 235.505 395.182 235.749C390.197 238.508 383.401 254.343 373.928 273.127C377.311 258.562 376.916 253.883 385.328 231.667Z" fill="white"/>
</g>
</mask>
<g mask="url(#mask1_0_1)">
<path id="Vector_7" d="M395.052 237.996C395.139 236.498 395.226 235 395.313 233.502C393.817 233.452 392.454 233.273 391.204 232.823C389.657 232.279 388.123 231.248 386.556 230.09L384.489 228.406L383.456 230.958C378.352 244.468 375.463 258.914 372.951 272.9L374.823 273.578C380.459 262.074 385.005 250.009 391.86 239.223C392.801 237.915 393.793 236.603 395.182 235.749C393.752 236.538 392.686 237.817 391.679 239.09C384.279 249.625 379.179 261.479 373.032 272.675L374.904 273.354C378.137 259.206 381.51 245.597 387.199 232.376L384.1 233.244C385.699 234.536 387.449 235.897 389.654 236.808C391.428 237.546 393.312 237.858 395.052 237.996ZM395.313 233.502L395.052 237.996L395.182 235.749L398.994 233.753L395.313 233.502Z" fill="#FFB81F"/>
</g>
</g>
</g>
<g id="Vector 1">
<path id="Vector_8" d="M395.666 234.333C399.449 237.505 401.755 237.53 406.333 234.333C404.203 242.39 403.57 256.204 401.001 277C399.305 256.336 399.033 237.759 395.666 234.333Z" fill="#FFDA10"/>
<g id="Mask group_2">
<mask id="mask2_0_1" style="mask-type:luminance" maskUnits="userSpaceOnUse" x="395" y="234" width="12" height="43">
<g id="Group_2">
<path id="Vector_9" d="M395.666 234.333C399.449 237.505 401.755 237.53 406.333 234.333C404.203 242.39 403.57 256.204 401.001 277C399.305 256.336 399.033 237.759 395.666 234.333Z" fill="white"/>
</g>
</mask>
<g mask="url(#mask2_0_1)">
<path id="Vector_10" d="M407.625 236.177C406.764 234.948 405.903 233.719 405.042 232.49C403.812 233.394 402.539 234.198 401.485 234.486C400.132 234.938 398.677 234.209 396.94 232.819L394.253 235.718C398.672 246.688 398.198 263.176 400.016 277.081L401.98 277.121C403.333 264.458 403.83 251.741 405.439 239.151C405.675 237.536 405.954 235.917 406.333 234.333C405.882 235.898 405.527 237.507 405.217 239.114C403.025 251.658 401.947 264.333 400.02 276.879L401.984 276.919C400.472 262.356 403.166 248.744 397.08 232.948L394.393 235.848C396.109 237.4 399.149 239.505 402.484 238.643C404.625 238.133 406.159 237.128 407.625 236.177ZM405.042 232.49L407.625 236.177L406.333 234.333L407.312 230.947L405.042 232.49Z" fill="#FFB81F"/>
</g>
</g>
</g>
<g id="Vector 2">
<path id="Vector_11" d="M375.168 189.328C372.64 192.75 371.698 194.847 371.085 199.182C367.678 192.654 353.652 187.075 333.707 177.928C351.824 182.581 366.785 185.695 375.168 189.328Z" fill="#FFDA10"/>
<g id="Mask group_3">
<mask id="mask3_0_1" style="mask-type:luminance" maskUnits="userSpaceOnUse" x="333" y="177" width="43" height="23">
<g id="Group_3">
<path id="Vector_12" d="M375.168 189.328C372.64 192.75 371.698 194.847 371.085 199.182C367.678 192.654 353.652 187.075 333.707 177.928C351.824 182.581 366.785 185.695 375.168 189.328Z" fill="white"/>
</g>
</mask>
<g mask="url(#mask3_0_1)">
<path id="Vector_13" d="M368.856 198.866C370.343 199.077 371.83 199.288 373.316 199.499C373.496 197.966 373.743 196.518 374.196 195.21C374.736 193.61 375.672 192.09 376.779 190.516L378.291 188.565L375.963 187.492C362.002 182.418 347.913 180.368 333.958 176.954L333.289 178.841C344.991 184.142 357.486 188.039 367.898 195.571C369.137 196.598 370.299 197.765 371.086 199.182C370.366 197.73 369.248 196.494 368.045 195.401C357.879 187.31 345.546 182.842 334.127 177.014L333.458 178.901C347.194 182.927 361.574 185.807 374.373 191.163L373.557 188.139C372.31 189.752 371.026 191.575 370.187 193.708C369.499 195.437 369.132 197.192 368.856 198.866ZM373.316 199.499L368.856 198.866L371.086 199.182L372.827 202.714L373.316 199.499Z" fill="#FFB81F"/>
</g>
</g>
</g>
<g id="Vector 3">
<path id="Vector_14" d="M371.667 199.667C368.495 203.449 368.47 205.755 371.667 210.333C368.299 206.973 350.592 206.609 329 205C348.377 202.938 367.411 201.84 371.667 199.667Z" fill="#FFDA10"/>
<g id="Mask group_4">
<mask id="mask4_0_1" style="mask-type:luminance" maskUnits="userSpaceOnUse" x="329" y="199" width="43" height="12">
<g id="Group_4">
<path id="Vector_15" d="M371.667 199.667C368.495 203.449 368.47 205.755 371.667 210.333C368.299 206.973 350.592 206.609 329 205C348.377 202.938 367.411 201.84 371.667 199.667Z" fill="white"/>
</g>
</mask>
<g mask="url(#mask4_0_1)">
<path id="Vector_16" d="M369.818 211.62C371.051 210.762 372.283 209.905 373.515 209.046C372.611 207.818 371.808 206.547 371.518 205.491C371.064 204.132 371.792 202.676 373.185 200.936L370.765 197.906C358.308 201.475 342.913 201.974 328.895 204.015L328.926 205.989C341.703 206.783 354.573 206.491 367.172 208.549C368.731 208.905 370.43 209.262 371.667 210.333C370.477 209.202 368.774 208.76 367.223 208.33C354.646 205.681 341.77 205.389 329.074 204.012L329.105 205.986C343.527 204.475 357.295 205.191 372.568 201.427L370.148 198.398C368.592 200.116 366.49 203.162 367.355 206.49C367.865 208.624 368.868 210.157 369.818 211.62ZM373.515 209.046L369.818 211.62L371.667 210.333L373.515 209.046Z" fill="#FFB81F"/>
</g>
</g>
</g>
<g id="Vector 4">
<path id="Vector_17" d="M395.182 175.086C398.698 179.838 388.432 176.409 385.328 179.168C381.7 173.8 378.682 157.872 373.927 137.708C383.05 157.196 391.667 170.333 395.182 175.086Z" fill="#FFDA10"/>
<g id="Mask group_5">
<mask id="mask5_0_1" style="mask-type:luminance" maskUnits="userSpaceOnUse" x="373" y="137" width="23" height="43">
<g id="Group_5">
<path id="Vector_18" d="M395.182 175.086C398.698 179.838 388.432 176.409 385.328 179.168C381.7 173.8 378.682 157.872 373.927 137.708C383.05 157.196 391.667 170.333 395.182 175.086Z" fill="white"/>
</g>
</mask>
<g mask="url(#mask5_0_1)">
<path id="Vector_19" d="M383.831 177.486C384.829 178.607 385.826 179.728 386.824 180.849C387.024 180.523 388.642 180.138 390.138 180.075C391.423 179.983 392.738 180.017 394.368 179.813C394.783 179.751 395.235 179.679 395.798 179.474C396.299 179.281 397.333 178.835 397.766 177.561C398.113 176.334 397.716 175.598 397.513 175.12C397.272 174.628 397.025 174.279 396.755 173.924C388.314 162.634 381.205 150.075 374.813 137.293L372.974 137.933C376.276 150.2 378.732 162.74 383.09 174.743C383.704 176.269 384.382 177.814 385.328 179.168C384.445 177.773 383.842 176.21 383.301 174.665C379.51 162.539 377.625 149.914 374.879 137.483L373.04 138.123C378.906 151.295 385.399 164.15 393.61 176.248C393.966 176.576 393.894 177.422 393.965 176.31C394.186 175.698 394.554 175.64 394.435 175.666C394.366 175.685 394.13 175.729 393.878 175.75C392.803 175.842 391.395 175.772 389.965 175.802C388.208 175.931 386.254 175.664 383.831 177.486ZM386.824 180.849L383.831 177.486L385.328 179.168L386.556 181.077L386.824 180.849Z" fill="#FFB81F"/>
</g>
</g>
</g>
<g id="Vector 5">
<path id="Vector_20" d="M406.333 175.667C402.551 172.495 400.245 172.47 395.667 175.667L400.999 133L406.333 175.667Z" fill="#FFDA10"/>
<g id="Mask group_6">
<mask id="mask6_0_1" style="mask-type:luminance" maskUnits="userSpaceOnUse" x="395" y="133" width="12" height="43">
<g id="Group_6">
<path id="Vector_21" d="M406.333 175.667C402.551 172.495 400.245 172.47 395.667 175.667L400.999 133L406.333 175.667Z" fill="white"/>
</g>
</mask>
<g mask="url(#mask6_0_1)">
<path id="Vector_22" d="M394.375 173.823C395.236 175.052 396.097 176.281 396.958 177.51C398.184 176.608 399.453 175.806 400.505 175.516C401.864 175.06 403.319 175.787 405.06 177.181L408.856 180.454L408.298 175.422C406.193 161.24 404.087 147.059 401.982 132.878L400.017 132.878C398.732 145.517 397.447 158.157 396.162 170.796C395.997 172.42 395.832 174.043 395.667 175.667C395.906 174.052 396.146 172.438 396.385 170.824C398.251 158.257 400.116 145.69 401.982 133.122L400.017 133.122C401.468 147.385 402.918 161.648 404.369 175.911L407.606 174.153C405.889 172.597 402.833 170.489 399.497 171.361C397.365 171.873 395.837 172.874 394.375 173.823ZM396.958 177.51L394.375 173.823L395.667 175.667L395.219 178.684L396.958 177.51Z" fill="#FFB81F"/>
</g>
</g>
</g>
<g id="Vector 6">
<path id="Vector_23" d="M382.712 179.17C379.656 181.892 377.926 183.405 375.17 186.712C375.528 183 362.899 169.443 348.771 152.772C365.282 165.492 381.394 177.7 382.712 179.17Z" fill="#FFDA10"/>
<g id="Mask group_7">
<mask id="mask7_0_1" style="mask-type:luminance" maskUnits="userSpaceOnUse" x="348" y="152" width="35" height="35">
<g id="Group_7">
<path id="Vector_24" d="M382.712 179.17C379.656 181.892 377.926 183.405 375.17 186.712C375.528 183 362.899 169.443 348.771 152.772C365.282 165.492 381.394 177.7 382.712 179.17Z" fill="white"/>
</g>
</mask>
<g mask="url(#mask7_0_1)">
<path id="Vector_25" d="M373.44 185.271C374.593 186.232 375.747 187.193 376.9 188.154C377.877 186.923 378.873 185.749 379.936 184.635C381.211 183.294 382.619 181.998 384.045 180.666L385.542 179.395L384.204 177.832C372.412 168.464 360.984 160.586 349.384 151.976L348.004 153.421C356.436 163.077 365.541 172.135 373.18 182.388C374.044 183.729 375.101 185.086 375.17 186.712C375.177 185.074 374.174 183.652 373.369 182.266C366.173 171.61 357.493 162.138 349.537 152.122L348.158 153.568C359.189 162.552 370.944 171.645 381.221 180.508L381.38 177.674C379.904 178.93 378.385 180.199 376.911 181.609C375.687 182.777 374.532 184.018 373.44 185.271ZM376.9 188.154L373.44 185.271L375.17 186.712L374.685 190.758L376.9 188.154Z" fill="#FFB81F"/>
</g>
</g>
</g>
<g id="Vector 7">
<path id="Vector_26" d="M375.17 223.667C377.863 227.356 379.772 228.847 382.712 231.209C379.722 229.613 364.744 244.147 348.772 257.608C359.436 242.236 366.113 229.457 375.17 223.667Z" fill="#FFDA10"/>
<g id="Mask group_8">
<mask id="mask8_0_1" style="mask-type:luminance" maskUnits="userSpaceOnUse" x="348" y="223" width="35" height="35">
<g id="Group_8">
<path id="Vector_27" d="M375.17 223.667C377.863 227.356 379.772 228.847 382.712 231.209C379.722 229.613 364.744 244.147 348.772 257.608C359.436 242.236 366.113 229.457 375.17 223.667Z" fill="white"/>
</g>
</mask>
<g mask="url(#mask8_0_1)">
<path id="Vector_28" d="M381.302 232.965C382.242 231.794 383.182 230.624 384.123 229.454C382.826 228.459 381.574 227.517 380.459 226.515C379.116 225.318 377.928 223.972 376.789 222.485L375.74 220.976L374.09 221.978C361.584 231.49 356.213 245.297 347.947 257.036L349.419 258.376C359.138 249.933 368.103 240.658 378.347 232.932C379.682 232.11 381.081 230.845 382.712 231.209C381.078 230.767 379.604 231.979 378.224 232.744C367.572 240.032 358.184 248.889 348.125 256.841L349.597 258.181C358.303 246.817 365.021 232.927 376.25 225.355L373.551 224.848C374.707 226.513 376.022 228.16 377.524 229.628C378.771 230.855 380.068 231.923 381.302 232.965ZM384.123 229.454L381.302 232.965L382.712 231.209L384.123 229.454Z" fill="#FFB81F"/>
</g>
</g>
</g>
<g id="Vector 8">
<path id="Vector_29" d="M371.085 210.333C371.446 215.044 372.664 217.182 375.167 220.188C361.853 225.08 350.855 227.283 333.708 231.589C351.175 222.763 368.268 216.48 371.085 210.333Z" fill="#FFDA10"/>
<g id="Mask group_9">
<mask id="mask9_0_1" style="mask-type:luminance" maskUnits="userSpaceOnUse" x="333" y="210" width="43" height="22">
<g id="Group_9">
<path id="Vector_30" d="M371.085 210.333C371.446 215.044 372.664 217.182 375.167 220.188C361.853 225.08 350.855 227.283 333.708 231.589C351.175 222.763 368.268 216.48 371.085 210.333Z" fill="white"/>
</g>
</mask>
<g mask="url(#mask9_0_1)">
<path id="Vector_31" d="M373.436 221.628C374.59 220.668 375.745 219.708 376.9 218.747C375.873 217.573 374.983 216.451 374.385 215.261C373.632 213.797 373.271 212.065 373.08 210.179L372.55 202.484L369.268 209.502C361.444 218.801 345.462 223.648 333.26 230.701L333.95 232.554C346.184 229.133 358.632 226.253 370.612 221.909C372.139 221.357 373.657 220.783 375.168 220.188C373.631 220.713 372.089 221.215 370.54 221.696C358.394 225.474 345.883 227.763 333.466 230.624L334.157 232.477C346.965 225.543 361.409 223.62 372.904 211.165L369.092 210.487C369.208 212.607 369.528 214.908 370.513 217.087C371.296 218.84 372.391 220.312 373.436 221.628ZM376.9 218.747L373.436 221.628L375.168 220.188L377.431 219.415L376.9 218.747Z" fill="#FFB81F"/>
</g>
</g>
</g>
<g id="Vector 10">
<path id="Vector_32" d="M416.188 179.167C412.633 176.402 410.479 175.33 406.333 175.086C413.383 171.119 418.882 155.747 427.588 137.707C421.834 162.74 418.757 175.754 416.188 179.167Z" fill="#FFDA10"/>
<g id="Mask group_10">
<mask id="mask10_0_1" style="mask-type:luminance" maskUnits="userSpaceOnUse" x="406" y="137" width="22" height="43">
<g id="Group_10">
<path id="Vector_33" d="M416.188 179.167C412.633 176.402 410.479 175.33 406.333 175.086C413.383 171.119 418.882 155.747 427.588 137.707C421.834 162.74 418.757 175.754 416.188 179.167Z" fill="white"/>
</g>
</mask>
<g mask="url(#mask10_0_1)">
<path id="Vector_34" d="M406.464 172.839C406.377 174.337 406.289 175.835 406.202 177.332C407.701 177.382 409.066 177.562 410.319 178.015C411.863 178.559 413.395 179.588 414.959 180.745L416.499 182.001L417.787 180.37C424.108 165.851 425.275 152.097 428.566 137.933L426.683 137.271C421.15 148.887 417.419 161.421 409.907 171.841C408.885 173.089 407.725 174.255 406.333 175.086C407.763 174.321 408.989 173.199 410.078 171.987C418.148 161.813 422.458 149.425 428.492 138.144L426.609 137.482C422.872 151.119 420.184 166.354 414.588 177.965L417.416 177.59C415.819 176.3 414.073 174.941 411.872 174.031C410.095 173.29 408.207 172.976 406.464 172.839ZM406.202 177.332L406.464 172.839L406.333 175.086L402.579 177.085L406.202 177.332Z" fill="#FFB81F"/>
</g>
</g>
</g>
<g id="Vector 11">
<path id="Vector_35" d="M430.333 210.333C433.505 206.551 433.53 204.245 430.333 199.667C434.483 202.89 450.453 203.453 473 205C451.993 206.72 436.403 207.369 430.333 210.333Z" fill="#FFDA10"/>
<g id="Mask group_11">
<mask id="mask11_0_1" style="mask-type:luminance" maskUnits="userSpaceOnUse" x="430" y="199" width="43" height="12">
<g id="Group_11">
<path id="Vector_36" d="M430.333 210.333C433.505 206.551 433.53 204.245 430.333 199.667C434.483 202.89 450.453 203.453 473 205C451.993 206.72 436.403 207.369 430.333 210.333Z" fill="white"/>
</g>
</mask>
<g mask="url(#mask11_0_1)">
<path id="Vector_37" d="M432.182 198.38C430.95 199.238 429.717 200.095 428.485 200.954C429.389 202.183 430.192 203.454 430.482 204.509C430.936 205.868 430.208 207.324 428.815 209.064L431.204 212.11C443.638 207.682 458.989 207.774 473.081 205.986L473.068 204.012C460.306 203.29 447.455 203.519 434.888 201.368C433.304 201.008 431.673 200.61 430.334 199.667C431.631 200.673 433.258 201.153 434.835 201.588C447.375 204.327 460.232 204.682 472.932 205.987L472.919 204.013C458.503 205.253 444.433 204.02 429.463 208.557L431.852 211.602C433.408 209.884 435.51 206.839 434.645 203.51C434.135 201.376 433.132 199.844 432.182 198.38ZM428.485 200.954L432.182 198.38L430.334 199.667L428.485 200.954Z" fill="#FFB81F"/>
</g>
</g>
</g>
<g id="Vector 12">
<path id="Vector_38" d="M427.209 186.712C424.516 183.023 422.607 181.532 419.667 179.17C426.195 178.429 438.213 166.124 453.607 152.771C439.467 171.156 429.605 184.054 427.209 186.712Z" fill="#FFDA10"/>
<g id="Mask group_12">
<mask id="mask12_0_1" style="mask-type:luminance" maskUnits="userSpaceOnUse" x="419" y="152" width="35" height="35">
<g id="Group_12">
<path id="Vector_39" d="M427.209 186.712C424.516 183.023 422.607 181.532 419.667 179.17C426.195 178.429 438.213 166.124 453.607 152.771C439.467 171.156 429.605 184.054 427.209 186.712Z" fill="white"/>
</g>
</mask>
<g mask="url(#mask12_0_1)">
<path id="Vector_40" d="M421.077 177.414C420.137 178.585 419.197 179.755 418.256 180.925C419.549 181.916 420.796 182.856 421.908 183.853C423.256 185.052 424.448 186.402 425.591 187.893L426.972 189.88L428.697 188.053C437.686 176.53 445.861 164.953 454.404 153.384L452.949 152.011C443.329 160.516 434.72 170.197 424.11 177.358C422.742 178.169 421.266 178.934 419.667 179.17C421.277 179.009 422.806 178.306 424.222 177.553C435.246 170.832 444.304 161.542 454.266 153.53L452.81 152.158C443.795 163.257 434.847 174.719 425.721 185.371L428.827 185.531C427.668 183.861 426.348 182.21 424.841 180.738C423.598 179.516 422.306 178.453 421.077 177.414ZM418.256 180.925L421.077 177.414L419.667 179.17L416.483 179.457L418.256 180.925Z" fill="#FFB81F"/>
</g>
</g>
</g>
<g id="Vector 13">
<path id="Vector_41" d="M425.513 220.063C426.636 219.134 428.67 214.626 429.082 210.333C429.569 205.247 486.333 242.333 466.46 231.588C448.735 222.005 428.987 219.955 425.513 220.063C425.306 220.235 425.129 220.284 424.999 220.188C424.91 220.121 425.092 220.076 425.513 220.063Z" fill="#FFDA10"/>
<g id="Mask group_13">
<mask id="mask13_0_1" style="mask-type:luminance" maskUnits="userSpaceOnUse" x="424" y="209" width="47" height="25">
<g id="Group_13">
<path id="Vector_42" d="M425.513 220.063C426.636 219.134 428.67 214.626 429.082 210.333C429.569 205.247 486.333 242.333 466.46 231.588C448.735 222.005 428.987 219.955 425.513 220.063C425.306 220.235 425.129 220.284 424.999 220.188C424.91 220.121 425.092 220.076 425.513 220.063Z" fill="white"/>
</g>
</mask>
<g mask="url(#mask13_0_1)">
<path id="Vector_43" d="M431.324 210.55C429.829 210.405 428.334 210.261 426.839 210.117C426.726 211.676 426.376 213.301 425.875 214.86C425.609 215.683 425.294 216.501 424.938 217.245C424.761 217.613 424.567 217.972 424.39 218.243C424.303 218.378 424.209 218.495 424.198 218.51C424.203 218.515 424.202 218.491 424.407 218.382C424.51 218.297 425.456 217.984 426.207 218.57C426.351 218.686 426.594 218.857 426.823 219.342C427.074 219.805 427.037 220.717 426.716 221.179C426.572 221.42 426.415 221.575 426.286 221.683C426.219 221.739 426.178 221.768 426.129 221.802C426.036 221.864 425.959 221.906 425.893 221.938C425.635 222.057 425.544 222.062 425.486 222.076C425.415 222.088 425.425 222.083 425.437 222.082C425.487 222.075 425.544 222.07 425.636 222.065C425.825 222.057 426.006 222.055 426.221 222.057C426.621 222.06 427.053 222.075 427.493 222.098C428.377 222.144 429.216 222.21 430.117 222.297C431.866 222.465 433.636 222.694 435.395 222.967C438.92 223.514 442.412 224.231 445.881 225.116C452.804 226.888 459.567 229.301 465.931 232.564C466.942 233.085 467.75 233.49 468.681 233.919C468.842 233.992 469.195 234.152 469.422 234.244C469.641 234.328 469.905 234.453 470.32 234.54C470.372 234.549 470.427 234.557 470.492 234.562C470.514 234.553 471.369 234.703 471.666 233.741C471.719 232.912 471.539 233.045 471.531 232.932C471.489 232.86 471.45 232.806 471.411 232.758C471.262 232.572 471.088 232.42 471.018 232.359C470.848 232.208 470.529 231.955 470.38 231.844C468.75 230.63 467.069 229.551 465.374 228.458C462.028 226.321 458.589 224.233 455.17 222.218C448.286 218.212 441.379 214.201 434.047 211.041C433.216 210.701 432.346 210.369 431.516 210.127C431.021 209.987 430.7 209.903 430.173 209.843C429.816 209.815 429.129 209.781 429.082 210.333C429.152 209.79 429.814 209.856 430.167 209.899C430.684 209.977 430.997 210.078 431.482 210.235C432.294 210.51 433.146 210.874 433.956 211.247C441.118 214.694 447.838 218.982 454.528 223.258C457.848 225.407 461.188 227.63 464.415 229.888C466.042 231.033 467.691 232.197 469.156 233.389C469.286 233.498 469.561 233.73 469.669 233.838C469.713 233.878 469.834 234.006 469.815 233.993C469.811 233.988 469.8 233.975 469.778 233.94C469.785 233.856 469.645 234.039 469.689 233.288C469.981 232.389 470.72 232.559 470.657 232.54C470.686 232.541 470.701 232.544 470.706 232.544C470.49 232.475 469.995 232.239 469.591 232.032C468.737 231.595 467.96 231.16 466.988 230.612C460.59 226.986 453.753 224.22 446.718 222.102C443.192 221.044 439.635 220.156 436.016 219.438C434.21 219.081 432.388 218.766 430.561 218.513C429.618 218.383 428.737 218.274 427.776 218.184C427.297 218.14 426.82 218.102 426.339 218.077C426.076 218.065 425.855 218.056 425.552 218.057C425.388 218.059 425.315 218.056 425.071 218.074C424.958 218.084 424.888 218.088 424.704 218.122C424.568 218.151 424.418 218.173 424.121 218.311C424.046 218.348 423.96 218.395 423.859 218.462C423.807 218.498 423.762 218.53 423.692 218.589C423.556 218.703 423.393 218.865 423.245 219.112C422.916 219.587 422.879 220.512 423.136 220.99C423.372 221.488 423.628 221.674 423.792 221.806C424.214 222.136 424.842 222.298 425.315 222.253C425.755 222.221 426.069 222.083 426.264 221.986C426.686 221.763 426.86 221.589 427.039 221.426C427.367 221.108 427.562 220.851 427.753 220.59C428.114 220.088 428.389 219.612 428.645 219.135C429.149 218.186 429.558 217.234 429.917 216.268C430.588 214.442 431.088 212.557 431.324 210.55ZM426.839 210.117L431.324 210.55L429.082 210.333L426.839 210.117Z" fill="#FFB81F"/>
</g>
</g>
</g>
<g id="Vector 14">
<path id="Vector_44" d="M431.749 199.183C431.388 194.473 430.17 192.334 427.667 189.328C432.003 185.505 446.698 182.71 469.126 177.927C450.445 186.812 433.531 192.716 431.749 199.183Z" fill="#FFDA10"/>
<g id="Mask group_14">
<mask id="mask14_0_1" style="mask-type:luminance" maskUnits="userSpaceOnUse" x="427" y="177" width="43" height="23">
<g id="Group_14">
<path id="Vector_45" d="M431.749 199.183C431.388 194.473 430.17 192.334 427.667 189.328C432.003 185.505 446.698 182.71 469.126 177.927C450.445 186.812 433.531 192.716 431.749 199.183Z" fill="white"/>
</g>
</mask>
<g mask="url(#mask14_0_1)">
<path id="Vector_46" d="M429.399 187.887C428.244 188.848 427.09 189.808 425.935 190.768C426.967 191.948 427.859 193.075 428.457 194.27C429.204 195.731 429.564 197.457 429.753 199.337L433.678 199.713C440.462 190.234 457.29 185.623 469.554 178.825L468.919 176.954C456.53 180.043 443.856 182.267 431.873 186.854C430.37 187.513 428.884 188.233 427.667 189.328C428.932 188.292 430.436 187.649 431.957 187.063C444.055 183.058 456.806 181.416 469.334 178.9L468.699 177.029C455.784 183.897 440.702 184.763 429.82 198.653L433.744 199.029C433.628 196.916 433.31 194.625 432.332 192.451C431.549 190.689 430.448 189.209 429.399 187.887ZM425.935 190.768L429.399 187.887L427.667 189.328L425.943 190.779L425.935 190.768Z" fill="#FFB81F"/>
</g>
</g>
</g>
<g id="Vector 15">
<path id="Vector_47" d="M419.666 231.209C414.841 230.898 427.74 221.429 427.208 223.666C426.677 225.904 453.783 257.388 453.607 257.607C453.356 258.647 424.491 231.52 419.666 231.209Z" fill="#FFDA10"/>
<g id="Mask group_15">
<mask id="mask15_0_1" style="mask-type:luminance" maskUnits="userSpaceOnUse" x="418" y="223" width="36" height="35">
<g id="Group_15">
<path id="Vector_48" d="M419.666 231.209C414.841 230.898 427.74 221.429 427.208 223.666C426.677 225.904 453.783 257.388 453.607 257.607C453.356 258.647 424.491 231.52 419.666 231.209Z" fill="white"/>
</g>
</mask>
<g mask="url(#mask15_0_1)">
<path id="Vector_49" d="M425.018 223.146C426.478 223.493 427.938 223.84 429.399 224.187C429.454 223.944 429.5 223.645 429.456 223.251C429.443 222.863 429.09 221.987 428.525 221.598C427.346 220.84 426.895 221.122 426.532 221.119C425.956 221.218 425.681 221.352 425.389 221.474C424.845 221.72 424.454 221.952 424.036 222.208C423.242 222.702 422.519 223.224 421.815 223.77C420.645 224.687 419.537 225.646 418.473 226.809C417.944 227.416 417.411 227.984 416.913 229.049C416.787 229.349 416.664 229.653 416.61 230.185C416.553 230.649 416.67 231.501 417.177 232.096C418.258 233.222 418.974 233.067 419.54 233.156C430.71 238.552 439.859 250.801 454.554 257.837L454.368 258.217C446.168 245.909 437.572 238.317 429.776 227.856C428.836 226.519 427.609 225.225 427.208 223.666C427.54 225.256 428.712 226.605 429.593 227.987C436.938 237.992 445.139 249.532 452.847 256.998L452.66 257.378C452.697 257.139 452.981 256.796 453.243 256.719C453.5 256.629 453.643 256.664 453.722 256.674C453.888 256.715 453.82 256.702 453.847 256.709C453.861 256.714 453.841 256.704 453.808 256.683C453.723 256.629 453.683 256.598 453.596 256.536C453.41 256.4 453.276 256.292 453.098 256.151C452.741 255.864 452.414 255.586 452.081 255.301C451.404 254.722 450.711 254.112 450.067 253.537C448.725 252.345 447.39 251.138 446.048 249.926C443.387 247.52 440.704 245.094 438.004 242.699C432.226 238.001 428.351 232.872 419.791 229.262C419.632 229.291 419.642 229.031 420.253 229.618C420.826 230.464 420.453 230.823 420.554 230.696C420.641 230.52 421.043 230.015 421.451 229.614C422.295 228.769 423.323 227.945 424.369 227.202C424.998 226.758 425.65 226.334 426.274 225.986C426.592 225.808 426.9 225.655 427.13 225.566C427.231 225.523 427.358 225.508 427.169 225.548C427.035 225.515 426.793 225.79 425.781 225.151C425.295 224.819 424.993 224.057 424.989 223.765C424.954 223.459 424.992 223.265 425.018 223.146ZM429.399 224.187L425.018 223.146L427.208 223.666L429.399 224.187Z" fill="#FFB81F"/>
</g>
</g>
</g>
<g id="Vector 16">
<path id="Vector_50" d="M406.334 235.749C410.803 235.19 413.084 234.426 416.188 231.667C417.534 233.943 422.36 252.108 427.589 273.126C417.215 251.17 410.446 235.478 406.334 235.749Z" fill="#FFDA10"/>
<g id="Mask group_16">
<mask id="mask16_0_1" style="mask-type:luminance" maskUnits="userSpaceOnUse" x="406" y="231" width="22" height="43">
<g id="Group_16">
<path id="Vector_51" d="M406.334 235.749C410.803 235.19 413.084 234.426 416.188 231.667C417.534 233.943 422.36 252.108 427.589 273.126C417.215 251.17 410.446 235.478 406.334 235.749Z" fill="white"/>
</g>
</mask>
<g mask="url(#mask16_0_1)">
<path id="Vector_52" d="M417.685 233.348C416.687 232.227 415.69 231.106 414.692 229.985C413.595 231.012 412.502 231.85 411.294 232.416C409.818 233.121 408.009 233.476 406.087 233.764L406.464 237.744C413.728 244.679 420.224 261.349 426.691 273.551L428.554 272.886C425.169 260.615 421.842 248.339 417.94 236.214C417.408 234.669 416.944 233.103 416.189 231.667C416.875 233.133 417.265 234.715 417.725 236.28C421.058 248.553 423.813 260.963 426.625 273.367L428.488 272.702C425.526 266.05 422.646 259.39 419.624 252.745C418.101 249.416 416.568 246.122 414.833 242.84C413.96 241.201 413.043 239.562 411.958 237.97C411.4 237.161 410.808 236.362 410.037 235.577C409.241 234.863 408.357 233.767 406.204 233.753L406.581 237.733C408.62 237.516 410.812 237.242 413.011 236.332C414.794 235.6 416.353 234.485 417.685 233.348ZM414.692 229.985L417.685 233.348L416.189 231.667L415.067 229.667L414.692 229.985Z" fill="#FFB81F"/>
</g>
</g>
</g>
</g>
<g id="Sun">
<path id="Vector_53" d="M401 236.5C418.397 236.5 432.5 222.397 432.5 205C432.5 187.603 418.397 173.5 401 173.5C383.603 173.5 369.5 187.603 369.5 205C369.5 222.397 383.603 236.5 401 236.5Z" fill="#FFDD10"/>
<g id="Mask group_17">
<mask id="mask17_0_1" style="mask-type:luminance" maskUnits="userSpaceOnUse" x="369" y="173" width="64" height="64">
<g id="Group_17">
<path id="Vector_54" d="M401 236.5C418.397 236.5 432.5 222.397 432.5 205C432.5 187.603 418.397 173.5 401 173.5C383.603 173.5 369.5 187.603 369.5 205C369.5 222.397 383.603 236.5 401 236.5Z" fill="white"/>
</g>
</mask>
<g mask="url(#mask17_0_1)">
<path id="Vector_55" d="M433.344 205C432.781 205 432.219 205 431.656 205C431.564 208.217 430.974 211.394 429.909 214.394C425.754 226.525 413.483 234.975 401 234.601C385.238 234.721 371.382 220.555 371.75 205C371.382 189.445 385.238 175.279 401 175.398C413.483 175.025 425.754 183.475 429.909 195.606C430.974 198.606 431.564 201.783 431.656 205C432.219 205 432.781 205 433.344 205C433.439 201.61 432.999 198.195 432.023 194.92C428.27 181.683 415.119 171.582 401 171.602C383.204 170.905 366.803 186.998 367.25 205C366.803 223.002 383.204 239.095 401 238.399C415.119 238.418 428.27 228.317 432.023 215.08C432.999 211.805 433.439 208.39 433.344 205Z" fill="white"/>
</g>
</g>
</g>
</g>
<g id="panel">
<path id="Rectangle 1" d="M336.735 208.2H460.265L480.853 265.8H316.147L336.735 208.2Z" fill="#356EA4"/>
<path id="Vector 17" opacity="0.4" d="M415 208L418 263" stroke="white"/>
<path id="Vector 17_2" opacity="0.4" d="M385 208L382 263" stroke="white"/>
<path id="Vector 17_3" opacity="0.4" d="M400 208V263" stroke="white"/>
<path id="Vector 18_2" opacity="0.3" d="M368.874 207.157L363 261.925" stroke="white"/>
<path id="Vector 19" opacity="0.4" d="M431 208.157L436.874 262.925" stroke="white"/>
<path id="Vector 20" opacity="0.4" d="M444 207.314L452.837 262.693" stroke="white"/>
<path id="Vector 21" opacity="0.4" d="M457 207.469L468.88 263.298" stroke="white"/>
<path id="Vector 22" opacity="0.4" d="M354.837 207.314L346 262.693" stroke="white"/>
<path id="Vector 23" opacity="0.4" d="M340.88 207.469L329 263.298" stroke="white"/>
<path id="Vector 17_4" opacity="0.4" d="M327 241.129H471" stroke="white"/>
<path id="Vector 17_5" opacity="0.4" d="M331 228.742H467" stroke="white"/>
<path id="Vector 17_6" opacity="0.4" d="M335 216.355H463" stroke="white"/>
<path id="Vector 17_7" opacity="0.4" d="M322 253.516H476" stroke="white"/>
<g id="Vector 19_2" filter="url(#filter25_i_0_1)">
<path d="M368 266L375 208" stroke="white" stroke-width="4"/>
</g>
<g id="Vector 19_3" filter="url(#filter26_i_0_1)">
<path d="M432 264L425 206" stroke="white" stroke-width="4"/>
</g>
<g id="Rectangle 1 (Stroke)" filter="url(#filter27_ii_0_1)">
<path d="M465.85 205C465.85 205 484.419 265.659 482.913 267.715C480.906 269.771 398.098 268.743 398.098 268.743C398.098 268.743 316.293 269.257 313.282 267.715C310.271 267.715 332.353 205 332.353 205H465.85ZM320.604 262.369H475.592L460.329 208.187H337.874L320.604 262.369Z" fill="#EEEEEE"/>
</g>
</g>
<g id="Frame 2">
<g id="tekerlek" filter="url(#filter28_din_0_1)">
<path d="M439.348 1.99988C425.123 15.9068 420.689 24.3443 419.005 40.5468L416.21 40.5311C428.692 41.1168 440.989 42.4061 453.064 44.3612L450.721 43.8475C464.698 22.957 478.347 17.2061 513.507 18.0419C496.737 28.6424 490.626 35.9572 485.603 51.3632C495.371 53.9989 504.957 57.0784 514.338 60.579C531.89 42.9731 546.41 39.9869 580.587 47.4296C562.131 54.6529 554.741 60.6723 546.898 74.8173C558.012 80.4233 568.759 86.6488 579.096 93.4481C600.089 80.1746 614.911 80.4775 646.584 95.2811C626.981 98.2488 618.445 102.488 607.666 114.559C613.926 119.735 619.989 125.141 625.842 130.764L625.812 130.732C649.151 121.4 663.661 124.372 692.192 144.935C672.312 144.199 663.141 146.795 650.233 156.731L648.834 155.242C655.531 163.15 661.858 171.382 667.786 179.912L665.721 176.664C690.39 171.85 704.091 177.477 728.284 203.003C708.89 198.57 699.395 199.409 684.86 206.764L682.082 202.394C687.677 212.045 692.789 222.01 697.387 232.256L696.721 230.524C721.855 230.679 734.174 238.903 752.847 268.705C734.735 260.538 725.263 259.478 709.596 263.796C713.418 275.446 716.6 287.385 719.098 299.574C743.552 305.087 753.825 315.762 765.704 348.814C749.727 336.961 740.695 333.913 724.429 334.806L724.138 332.921C724.98 341.467 725.493 350.11 725.66 358.838L725.811 354.167C748.903 364.094 757.049 376.464 762.648 411.184C749.165 396.634 740.857 391.962 724.797 389.837C724 400.449 722.694 410.918 720.903 421.222L721.441 419.033C741.976 433.528 747.383 447.318 745.668 482.445C735.582 465.57 728.46 459.241 713.468 453.866C710.992 462.613 708.158 471.209 704.985 479.64C722.209 497.66 724.851 512.243 716.546 546.269C709.883 527.906 704.119 520.321 690.603 512.262C686.55 520.234 682.179 528.017 677.504 535.593C691.151 556.408 691.098 571.23 676.782 603.167C673.531 583.771 669.199 575.285 657.183 564.816C651.91 571.581 646.375 578.131 640.594 584.452C649.938 607.14 647.06 621.697 627.259 650.253C627.626 630.756 624.976 621.606 615.293 609.267C607.882 615.787 600.173 621.974 592.187 627.806C596.549 651.773 590.674 665.407 565.489 689.167C569.826 670.396 569.196 660.898 562.505 647.1C556.525 650.54 550.424 653.792 544.212 656.853C544.735 681.143 536.777 693.68 508.215 713.167C515.515 695.131 516.327 685.641 511.731 670.712C501.899 674.285 491.845 677.398 481.596 680.023C476.579 703.366 465.907 713.715 433.972 726.156C444.833 710.678 447.903 701.682 447.045 686.889C437.431 688.26 427.683 689.212 417.817 689.724C408.576 712.05 396.237 720.321 362.354 726.719C376.137 713.245 380.727 704.905 382.532 689.664C371.551 689.058 360.715 687.908 350.052 686.238C336.388 706.013 322.576 711.494 288.197 710.677C304.396 700.437 310.647 693.263 315.581 678.901C305.556 676.187 295.725 673.003 286.109 669.379C269.106 685.882 254.475 688.553 221.116 681.289C238.971 674.301 246.467 668.439 254.037 655.259C242.697 649.514 231.74 643.123 221.214 636.136C200.945 648.522 186.087 647.911 155.12 633.437C174.145 630.557 182.745 626.478 193.09 615.205C186.686 609.881 180.49 604.317 174.515 598.524C151.972 607.193 137.478 603.94 109.512 583.783C128.929 584.502 138.129 582.041 150.574 572.667C145.101 566.077 139.884 559.266 134.937 552.252C110.921 556.703 97.2682 550.879 73.4187 525.716C92.5081 530.079 102.005 529.33 116.16 522.293C111.82 514.449 107.795 506.407 104.101 498.183C79.5576 497.841 67.3099 489.465 48.8562 460.013C66.6876 468.053 76.1438 469.203 91.3807 465.117C87.5838 453.357 84.4384 441.305 81.9881 429.002C57.9779 423.447 47.7782 412.677 35.9998 379.904C51.8792 391.685 60.8977 394.766 76.9764 393.927C76.4162 387.538 76.0414 381.097 75.8562 374.607C52.879 364.845 44.688 352.496 38.8846 317.929C52.4291 332.357 60.7594 336.986 76.7586 339.016C77.617 328.235 79.0007 317.602 80.8855 307.143L80.2615 309.685C59.7273 295.19 54.32 281.401 56.035 246.273C66.1609 263.216 73.3002 269.528 88.4158 274.917C90.9902 265.993 93.9373 257.226 97.2381 248.636L96.9314 249.303C79.5155 231.179 76.8187 216.615 85.158 182.449C91.8914 201.006 97.7058 208.557 111.531 216.713C116.566 206.925 122.082 197.426 128.05 188.247L124.399 193.432C110.552 172.455 110.536 157.644 124.922 125.552C128.21 145.172 132.603 153.631 144.939 164.269L141.97 168.485C148.458 159.963 155.356 151.77 162.637 143.937L161.452 145.094C151.696 121.929 154.404 107.367 174.445 78.4657C174.07 98.3562 176.833 107.479 187.004 120.204L185.845 121.332C193.922 114.208 202.356 107.479 211.117 101.176L209.729 102.055C204.973 77.3735 210.632 63.6855 236.214 39.5516C231.758 58.8359 232.546 68.3337 239.762 82.7606C246.841 78.7175 254.086 74.9322 261.485 71.4188L257.525 73.1239C256.7 48.0024 264.437 35.3725 293.489 15.5516C286.025 33.9924 285.342 43.4995 290.288 59.0204L283.34 62.0106C295.163 57.4295 307.321 53.5198 319.767 50.329C324.642 25.8277 335.061 15.2905 367.731 2.56238C356.494 18.5782 353.595 27.653 354.761 43.3925C365.973 41.8053 377.37 40.79 388.92 40.3778L383.336 40.3475C392.642 16.9988 404.79 8.52485 439.348 1.99988ZM400.721 80.1669C243.319 80.1669 115.721 207.766 115.721 365.167C115.721 522.568 243.319 650.167 400.721 650.167C558.122 650.167 685.721 522.568 685.721 365.167C685.721 207.766 558.122 80.1669 400.721 80.1669ZM400.721 90.1669C552.599 90.1669 675.721 213.289 675.721 365.167C675.721 517.045 552.599 640.167 400.721 640.167C248.842 640.167 125.721 517.045 125.721 365.167C125.721 213.289 248.842 90.1669 400.721 90.1669ZM400.721 106.167C257.679 106.167 141.721 222.125 141.721 365.167C141.721 508.209 257.679 624.167 400.721 624.167C543.762 624.167 659.721 508.209 659.721 365.167C659.721 222.125 543.762 106.167 400.721 106.167Z" fill="url(#paint5_radial_0_1)" shape-rendering="crispEdges"/>
</g>
</g>
<g id="zemin" filter="url(#filter29_ii_0_1)">
<rect x="2" y="376" width="800" height="16" rx="2" fill="#1F4D63"/>
</g>
</g>
<defs>
<filter id="filter0_di_0_1" x="196.125" y="518.656" width="410.702" height="66.456" filterUnits="userSpaceOnUse" color-interpolation-filters="sRGB">
<feFlood flood-opacity="0" result="BackgroundImageFix"/>
<feColorMatrix in="SourceAlpha" type="matrix" values="0 0 0 0 0 0 0 0 0 0 0 0 0 0 0 0 0 0 127 0" result="hardAlpha"/>
<feOffset dy="1"/>
<feGaussianBlur stdDeviation="0.4"/>
<feComposite in2="hardAlpha" operator="out"/>
<feColorMatrix type="matrix" values="0 0 0 0 0.666667 0 0 0 0 0.666667 0 0 0 0 0.666667 0 0 0 1 0"/>
<feBlend mode="normal" in2="BackgroundImageFix" result="effect1_dropShadow_0_1"/>
<feBlend mode="normal" in="SourceGraphic" in2="effect1_dropShadow_0_1" result="shape"/>
<feColorMatrix in="SourceAlpha" type="matrix" values="0 0 0 0 0 0 0 0 0 0 0 0 0 0 0 0 0 0 127 0" result="hardAlpha"/>
<feOffset dy="-2"/>
<feGaussianBlur stdDeviation="2"/>
<feComposite in2="hardAlpha" operator="arithmetic" k2="-1" k3="1"/>
<feColorMatrix type="matrix" values="0 0 0 0 0.533333 0 0 0 0 0.533333 0 0 0 0 0.533333 0 0 0 1 0"/>
<feBlend mode="normal" in2="shape" result="effect2_innerShadow_0_1"/>
</filter>
<filter id="filter1_di_0_1" x="0.8" y="404.8" width="823.2" height="107.2" filterUnits="userSpaceOnUse" color-interpolation-filters="sRGB">
<feFlood flood-opacity="0" result="BackgroundImageFix"/>
<feColorMatrix in="SourceAlpha" type="matrix" values="0 0 0 0 0 0 0 0 0 0 0 0 0 0 0 0 0 0 127 0" result="hardAlpha"/>
<feOffset dy="-2"/>
<feGaussianBlur stdDeviation="0.6"/>
<feComposite in2="hardAlpha" operator="out"/>
<feColorMatrix type="matrix" values="0 0 0 0 0.733333 0 0 0 0 0.733333 0 0 0 0 0.733333 0 0 0 1 0"/>
<feBlend mode="normal" in2="BackgroundImageFix" result="effect1_dropShadow_0_1"/>
<feBlend mode="normal" in="SourceGraphic" in2="effect1_dropShadow_0_1" result="shape"/>
<feColorMatrix in="SourceAlpha" type="matrix" values="0 0 0 0 0 0 0 0 0 0 0 0 0 0 0 0 0 0 127 0" result="hardAlpha"/>
<feOffset dx="2" dy="4"/>
<feGaussianBlur stdDeviation="2"/>
<feComposite in2="hardAlpha" operator="arithmetic" k2="-1" k3="1"/>
<feColorMatrix type="matrix" values="0 0 0 0 0.666667 0 0 0 0 0.666667 0 0 0 0 0.666667 0 0 0 1 0"/>
<feBlend mode="normal" in2="shape" result="effect2_innerShadow_0_1"/>
</filter>
<filter id="filter2_ii_0_1" x="283.405" y="259.42" width="230.205" height="121.08" filterUnits="userSpaceOnUse" color-interpolation-filters="sRGB">
<feFlood flood-opacity="0" result="BackgroundImageFix"/>
<feBlend mode="normal" in="SourceGraphic" in2="BackgroundImageFix" result="shape"/>
<feColorMatrix in="SourceAlpha" type="matrix" values="0 0 0 0 0 0 0 0 0 0 0 0 0 0 0 0 0 0 127 0" result="hardAlpha"/>
<feOffset dy="-2"/>
<feGaussianBlur stdDeviation="2"/>
<feComposite in2="hardAlpha" operator="arithmetic" k2="-1" k3="1"/>
<feColorMatrix type="matrix" values="0 0 0 0 0 0 0 0 0 0 0 0 0 0 0 0 0 0 0.4 0"/>
<feBlend mode="normal" in2="shape" result="effect1_innerShadow_0_1"/>
<feColorMatrix in="SourceAlpha" type="matrix" values="0 0 0 0 0 0 0 0 0 0 0 0 0 0 0 0 0 0 127 0" result="hardAlpha"/>
<feOffset dy="2"/>
<feGaussianBlur stdDeviation="2"/>
<feComposite in2="hardAlpha" operator="arithmetic" k2="-1" k3="1"/>
<feColorMatrix type="matrix" values="0 0 0 0 0.8 0 0 0 0 0.8 0 0 0 0 0.8 0 0 0 0.4 0"/>
<feBlend mode="hard-light" in2="effect1_innerShadow_0_1" result="effect2_innerShadow_0_1"/>
</filter>
<filter id="filter3_ii_0_1" x="444.833" y="287.595" width="147.499" height="89.4173" filterUnits="userSpaceOnUse" color-interpolation-filters="sRGB">
<feFlood flood-opacity="0" result="BackgroundImageFix"/>
<feBlend mode="normal" in="SourceGraphic" in2="BackgroundImageFix" result="shape"/>
<feColorMatrix in="SourceAlpha" type="matrix" values="0 0 0 0 0 0 0 0 0 0 0 0 0 0 0 0 0 0 127 0" result="hardAlpha"/>
<feOffset dy="-2"/>
<feGaussianBlur stdDeviation="2"/>
<feComposite in2="hardAlpha" operator="arithmetic" k2="-1" k3="1"/>
<feColorMatrix type="matrix" values="0 0 0 0 0 0 0 0 0 0 0 0 0 0 0 0 0 0 0.4 0"/>
<feBlend mode="normal" in2="shape" result="effect1_innerShadow_0_1"/>
<feColorMatrix in="SourceAlpha" type="matrix" values="0 0 0 0 0 0 0 0 0 0 0 0 0 0 0 0 0 0 127 0" result="hardAlpha"/>
<feOffset dy="2"/>
<feGaussianBlur stdDeviation="2"/>
<feComposite in2="hardAlpha" operator="arithmetic" k2="-1" k3="1"/>
<feColorMatrix type="matrix" values="0 0 0 0 0.8 0 0 0 0 0.8 0 0 0 0 0.8 0 0 0 0.4 0"/>
<feBlend mode="hard-light" in2="effect1_innerShadow_0_1" result="effect2_innerShadow_0_1"/>
</filter>
<filter id="filter4_ii_0_1" x="593.759" y="292.449" width="84.9423" height="101.134" filterUnits="userSpaceOnUse" color-interpolation-filters="sRGB">
<feFlood flood-opacity="0" result="BackgroundImageFix"/>
<feBlend mode="normal" in="SourceGraphic" in2="BackgroundImageFix" result="shape"/>
<feColorMatrix in="SourceAlpha" type="matrix" values="0 0 0 0 0 0 0 0 0 0 0 0 0 0 0 0 0 0 127 0" result="hardAlpha"/>
<feOffset dy="-2"/>
<feGaussianBlur stdDeviation="2"/>
<feComposite in2="hardAlpha" operator="arithmetic" k2="-1" k3="1"/>
<feColorMatrix type="matrix" values="0 0 0 0 0 0 0 0 0 0 0 0 0 0 0 0 0 0 0.4 0"/>
<feBlend mode="normal" in2="shape" result="effect1_innerShadow_0_1"/>
<feColorMatrix in="SourceAlpha" type="matrix" values="0 0 0 0 0 0 0 0 0 0 0 0 0 0 0 0 0 0 127 0" result="hardAlpha"/>
<feOffset dy="2"/>
<feGaussianBlur stdDeviation="2"/>
<feComposite in2="hardAlpha" operator="arithmetic" k2="-1" k3="1"/>
<feColorMatrix type="matrix" values="0 0 0 0 0.8 0 0 0 0 0.8 0 0 0 0 0.8 0 0 0 0.4 0"/>
<feBlend mode="hard-light" in2="effect1_innerShadow_0_1" result="effect2_innerShadow_0_1"/>
</filter>
<filter id="filter5_ii_0_1" x="206.612" y="287.196" width="147.499" height="89.4173" filterUnits="userSpaceOnUse" color-interpolation-filters="sRGB">
<feFlood flood-opacity="0" result="BackgroundImageFix"/>
<feBlend mode="normal" in="SourceGraphic" in2="BackgroundImageFix" result="shape"/>
<feColorMatrix in="SourceAlpha" type="matrix" values="0 0 0 0 0 0 0 0 0 0 0 0 0 0 0 0 0 0 127 0" result="hardAlpha"/>
<feOffset dy="-2"/>
<feGaussianBlur stdDeviation="2"/>
<feComposite in2="hardAlpha" operator="arithmetic" k2="-1" k3="1"/>
<feColorMatrix type="matrix" values="0 0 0 0 0 0 0 0 0 0 0 0 0 0 0 0 0 0 0.4 0"/>
<feBlend mode="normal" in2="shape" result="effect1_innerShadow_0_1"/>
<feColorMatrix in="SourceAlpha" type="matrix" values="0 0 0 0 0 0 0 0 0 0 0 0 0 0 0 0 0 0 127 0" result="hardAlpha"/>
<feOffset dy="2"/>
<feGaussianBlur stdDeviation="2"/>
<feComposite in2="hardAlpha" operator="arithmetic" k2="-1" k3="1"/>
<feColorMatrix type="matrix" values="0 0 0 0 0.8 0 0 0 0 0.8 0 0 0 0 0.8 0 0 0 0.4 0"/>
<feBlend mode="hard-light" in2="effect1_innerShadow_0_1" result="effect2_innerShadow_0_1"/>
</filter>
<filter id="filter6_ii_0_1" x="121.418" y="292.449" width="84.9423" height="101.134" filterUnits="userSpaceOnUse" color-interpolation-filters="sRGB">
<feFlood flood-opacity="0" result="BackgroundImageFix"/>
<feBlend mode="normal" in="SourceGraphic" in2="BackgroundImageFix" result="shape"/>
<feColorMatrix in="SourceAlpha" type="matrix" values="0 0 0 0 0 0 0 0 0 0 0 0 0 0 0 0 0 0 127 0" result="hardAlpha"/>
<feOffset dy="-2"/>
<feGaussianBlur stdDeviation="2"/>
<feComposite in2="hardAlpha" operator="arithmetic" k2="-1" k3="1"/>
<feColorMatrix type="matrix" values="0 0 0 0 0 0 0 0 0 0 0 0 0 0 0 0 0 0 0.4 0"/>
<feBlend mode="normal" in2="shape" result="effect1_innerShadow_0_1"/>
<feColorMatrix in="SourceAlpha" type="matrix" values="0 0 0 0 0 0 0 0 0 0 0 0 0 0 0 0 0 0 127 0" result="hardAlpha"/>
<feOffset dy="2"/>
<feGaussianBlur stdDeviation="2"/>
<feComposite in2="hardAlpha" operator="arithmetic" k2="-1" k3="1"/>
<feColorMatrix type="matrix" values="0 0 0 0 0.8 0 0 0 0 0.8 0 0 0 0 0.8 0 0 0 0.4 0"/>
<feBlend mode="hard-light" in2="effect1_innerShadow_0_1" result="effect2_innerShadow_0_1"/>
</filter>
<filter id="filter7_f_0_1" x="384" y="329" width="30" height="39" filterUnits="userSpaceOnUse" color-interpolation-filters="sRGB">
<feFlood flood-opacity="0" result="BackgroundImageFix"/>
<feBlend mode="normal" in="SourceGraphic" in2="BackgroundImageFix" result="shape"/>
<feGaussianBlur stdDeviation="1" result="effect1_foregroundBlur_0_1"/>
</filter>
<filter id="filter8_ii_0_1" x="358" y="296.2" width="82" height="41.6" filterUnits="userSpaceOnUse" color-interpolation-filters="sRGB">
<feFlood flood-opacity="0" result="BackgroundImageFix"/>
<feBlend mode="normal" in="SourceGraphic" in2="BackgroundImageFix" result="shape"/>
<feColorMatrix in="SourceAlpha" type="matrix" values="0 0 0 0 0 0 0 0 0 0 0 0 0 0 0 0 0 0 127 0" result="hardAlpha"/>
<feOffset dy="-1"/>
<feGaussianBlur stdDeviation="0.4"/>
<feComposite in2="hardAlpha" operator="arithmetic" k2="-1" k3="1"/>
<feColorMatrix type="matrix" values="0 0 0 0 0 0 0 0 0 0 0 0 0 0 0 0 0 0 0.4 0"/>
<feBlend mode="normal" in2="shape" result="effect1_innerShadow_0_1"/>
<feColorMatrix in="SourceAlpha" type="matrix" values="0 0 0 0 0 0 0 0 0 0 0 0 0 0 0 0 0 0 127 0" result="hardAlpha"/>
<feOffset dy="2"/>
<feGaussianBlur stdDeviation="0.4"/>
<feComposite in2="hardAlpha" operator="arithmetic" k2="-1" k3="1"/>
<feColorMatrix type="matrix" values="0 0 0 0 1 0 0 0 0 1 0 0 0 0 1 0 0 0 0.4 0"/>
<feBlend mode="hard-light" in2="effect1_innerShadow_0_1" result="effect2_innerShadow_0_1"/>
</filter>
<filter id="filter9_f_0_1" x="380" y="364" width="38" height="6" filterUnits="userSpaceOnUse" color-interpolation-filters="sRGB">
<feFlood flood-opacity="0" result="BackgroundImageFix"/>
<feBlend mode="normal" in="SourceGraphic" in2="BackgroundImageFix" result="shape"/>
<feGaussianBlur stdDeviation="1" result="effect1_foregroundBlur_0_1"/>
</filter>
<filter id="filter10_f_0_1" x="381.2" y="365.2" width="35.6" height="3.6" filterUnits="userSpaceOnUse" color-interpolation-filters="sRGB">
<feFlood flood-opacity="0" result="BackgroundImageFix"/>
<feBlend mode="normal" in="SourceGraphic" in2="BackgroundImageFix" result="shape"/>
<feGaussianBlur stdDeviation="0.4" result="effect1_foregroundBlur_0_1"/>
</filter>
<filter id="filter11_f_0_1" x="385.2" y="349.2" width="13.6" height="16.6" filterUnits="userSpaceOnUse" color-interpolation-filters="sRGB">
<feFlood flood-opacity="0" result="BackgroundImageFix"/>
<feBlend mode="normal" in="SourceGraphic" in2="BackgroundImageFix" result="shape"/>
<feGaussianBlur stdDeviation="0.4" result="effect1_foregroundBlur_0_1"/>
</filter>
<filter id="filter12_f_0_1" x="399.2" y="349.2" width="13.6" height="16.6" filterUnits="userSpaceOnUse" color-interpolation-filters="sRGB">
<feFlood flood-opacity="0" result="BackgroundImageFix"/>
<feBlend mode="normal" in="SourceGraphic" in2="BackgroundImageFix" result="shape"/>
<feGaussianBlur stdDeviation="0.4" result="effect1_foregroundBlur_0_1"/>
</filter>
<filter id="filter13_f_0_1" x="399.2" y="331.2" width="13.6" height="17.6" filterUnits="userSpaceOnUse" color-interpolation-filters="sRGB">
<feFlood flood-opacity="0" result="BackgroundImageFix"/>
<feBlend mode="normal" in="SourceGraphic" in2="BackgroundImageFix" result="shape"/>
<feGaussianBlur stdDeviation="0.4" result="effect1_foregroundBlur_0_1"/>
</filter>
<filter id="filter14_f_0_1" x="385.2" y="331.2" width="13.6" height="17.6" filterUnits="userSpaceOnUse" color-interpolation-filters="sRGB">
<feFlood flood-opacity="0" result="BackgroundImageFix"/>
<feBlend mode="normal" in="SourceGraphic" in2="BackgroundImageFix" result="shape"/>
<feGaussianBlur stdDeviation="0.4" result="effect1_foregroundBlur_0_1"/>
</filter>
<filter id="filter15_f_0_1" x="199" y="337" width="24" height="24" filterUnits="userSpaceOnUse" color-interpolation-filters="sRGB">
<feFlood flood-opacity="0" result="BackgroundImageFix"/>
<feBlend mode="normal" in="SourceGraphic" in2="BackgroundImageFix" result="shape"/>
<feGaussianBlur stdDeviation="1" result="effect1_foregroundBlur_0_1"/>
</filter>
<filter id="filter16_iif_0_1" x="211.2" y="349.2" width="9.6" height="9.6" filterUnits="userSpaceOnUse" color-interpolation-filters="sRGB">
<feFlood flood-opacity="0" result="BackgroundImageFix"/>
<feBlend mode="normal" in="SourceGraphic" in2="BackgroundImageFix" result="shape"/>
<feColorMatrix in="SourceAlpha" type="matrix" values="0 0 0 0 0 0 0 0 0 0 0 0 0 0 0 0 0 0 127 0" result="hardAlpha"/>
<feOffset dy="-1"/>
<feComposite in2="hardAlpha" operator="arithmetic" k2="-1" k3="1"/>
<feColorMatrix type="matrix" values="0 0 0 0 0 0 0 0 0 0 0 0 0 0 0 0 0 0 0.4 0"/>
<feBlend mode="normal" in2="shape" result="effect1_innerShadow_0_1"/>
<feColorMatrix in="SourceAlpha" type="matrix" values="0 0 0 0 0 0 0 0 0 0 0 0 0 0 0 0 0 0 127 0" result="hardAlpha"/>
<feOffset dy="1"/>
<feComposite in2="hardAlpha" operator="arithmetic" k2="-1" k3="1"/>
<feColorMatrix type="matrix" values="0 0 0 0 1 0 0 0 0 1 0 0 0 0 1 0 0 0 0.4 0"/>
<feBlend mode="hard-light" in2="effect1_innerShadow_0_1" result="effect2_innerShadow_0_1"/>
<feGaussianBlur stdDeviation="0.4" result="effect3_foregroundBlur_0_1"/>
</filter>
<filter id="filter17_iif_0_1" x="211.2" y="339.2" width="9.6" height="9.6" filterUnits="userSpaceOnUse" color-interpolation-filters="sRGB">
<feFlood flood-opacity="0" result="BackgroundImageFix"/>
<feBlend mode="normal" in="SourceGraphic" in2="BackgroundImageFix" result="shape"/>
<feColorMatrix in="SourceAlpha" type="matrix" values="0 0 0 0 0 0 0 0 0 0 0 0 0 0 0 0 0 0 127 0" result="hardAlpha"/>
<feOffset dy="-1"/>
<feComposite in2="hardAlpha" operator="arithmetic" k2="-1" k3="1"/>
<feColorMatrix type="matrix" values="0 0 0 0 0 0 0 0 0 0 0 0 0 0 0 0 0 0 0.4 0"/>
<feBlend mode="normal" in2="shape" result="effect1_innerShadow_0_1"/>
<feColorMatrix in="SourceAlpha" type="matrix" values="0 0 0 0 0 0 0 0 0 0 0 0 0 0 0 0 0 0 127 0" result="hardAlpha"/>
<feOffset dy="1"/>
<feComposite in2="hardAlpha" operator="arithmetic" k2="-1" k3="1"/>
<feColorMatrix type="matrix" values="0 0 0 0 1 0 0 0 0 1 0 0 0 0 1 0 0 0 0.4 0"/>
<feBlend mode="hard-light" in2="effect1_innerShadow_0_1" result="effect2_innerShadow_0_1"/>
<feGaussianBlur stdDeviation="0.4" result="effect3_foregroundBlur_0_1"/>
</filter>
<filter id="filter18_iif_0_1" x="201.2" y="339.2" width="9.6" height="9.6" filterUnits="userSpaceOnUse" color-interpolation-filters="sRGB">
<feFlood flood-opacity="0" result="BackgroundImageFix"/>
<feBlend mode="normal" in="SourceGraphic" in2="BackgroundImageFix" result="shape"/>
<feColorMatrix in="SourceAlpha" type="matrix" values="0 0 0 0 0 0 0 0 0 0 0 0 0 0 0 0 0 0 127 0" result="hardAlpha"/>
<feOffset dy="-1"/>
<feComposite in2="hardAlpha" operator="arithmetic" k2="-1" k3="1"/>
<feColorMatrix type="matrix" values="0 0 0 0 0 0 0 0 0 0 0 0 0 0 0 0 0 0 0.4 0"/>
<feBlend mode="normal" in2="shape" result="effect1_innerShadow_0_1"/>
<feColorMatrix in="SourceAlpha" type="matrix" values="0 0 0 0 0 0 0 0 0 0 0 0 0 0 0 0 0 0 127 0" result="hardAlpha"/>
<feOffset dy="1"/>
<feComposite in2="hardAlpha" operator="arithmetic" k2="-1" k3="1"/>
<feColorMatrix type="matrix" values="0 0 0 0 1 0 0 0 0 1 0 0 0 0 1 0 0 0 0.4 0"/>
<feBlend mode="hard-light" in2="effect1_innerShadow_0_1" result="effect2_innerShadow_0_1"/>
<feGaussianBlur stdDeviation="0.4" result="effect3_foregroundBlur_0_1"/>
</filter>
<filter id="filter19_iif_0_1" x="201.2" y="349.2" width="9.6" height="9.6" filterUnits="userSpaceOnUse" color-interpolation-filters="sRGB">
<feFlood flood-opacity="0" result="BackgroundImageFix"/>
<feBlend mode="normal" in="SourceGraphic" in2="BackgroundImageFix" result="shape"/>
<feColorMatrix in="SourceAlpha" type="matrix" values="0 0 0 0 0 0 0 0 0 0 0 0 0 0 0 0 0 0 127 0" result="hardAlpha"/>
<feOffset dy="-1"/>
<feComposite in2="hardAlpha" operator="arithmetic" k2="-1" k3="1"/>
<feColorMatrix type="matrix" values="0 0 0 0 0 0 0 0 0 0 0 0 0 0 0 0 0 0 0.4 0"/>
<feBlend mode="normal" in2="shape" result="effect1_innerShadow_0_1"/>
<feColorMatrix in="SourceAlpha" type="matrix" values="0 0 0 0 0 0 0 0 0 0 0 0 0 0 0 0 0 0 127 0" result="hardAlpha"/>
<feOffset dy="1"/>
<feComposite in2="hardAlpha" operator="arithmetic" k2="-1" k3="1"/>
<feColorMatrix type="matrix" values="0 0 0 0 1 0 0 0 0 1 0 0 0 0 1 0 0 0 0.4 0"/>
<feBlend mode="hard-light" in2="effect1_innerShadow_0_1" result="effect2_innerShadow_0_1"/>
<feGaussianBlur stdDeviation="0.4" result="effect3_foregroundBlur_0_1"/>
</filter>
<filter id="filter20_f_0_1" x="576" y="338" width="24" height="24" filterUnits="userSpaceOnUse" color-interpolation-filters="sRGB">
<feFlood flood-opacity="0" result="BackgroundImageFix"/>
<feBlend mode="normal" in="SourceGraphic" in2="BackgroundImageFix" result="shape"/>
<feGaussianBlur stdDeviation="1" result="effect1_foregroundBlur_0_1"/>
</filter>
<filter id="filter21_iif_0_1" x="588.2" y="350.2" width="9.6" height="9.6" filterUnits="userSpaceOnUse" color-interpolation-filters="sRGB">
<feFlood flood-opacity="0" result="BackgroundImageFix"/>
<feBlend mode="normal" in="SourceGraphic" in2="BackgroundImageFix" result="shape"/>
<feColorMatrix in="SourceAlpha" type="matrix" values="0 0 0 0 0 0 0 0 0 0 0 0 0 0 0 0 0 0 127 0" result="hardAlpha"/>
<feOffset dy="-1"/>
<feComposite in2="hardAlpha" operator="arithmetic" k2="-1" k3="1"/>
<feColorMatrix type="matrix" values="0 0 0 0 0 0 0 0 0 0 0 0 0 0 0 0 0 0 0.4 0"/>
<feBlend mode="normal" in2="shape" result="effect1_innerShadow_0_1"/>
<feColorMatrix in="SourceAlpha" type="matrix" values="0 0 0 0 0 0 0 0 0 0 0 0 0 0 0 0 0 0 127 0" result="hardAlpha"/>
<feOffset dy="1"/>
<feComposite in2="hardAlpha" operator="arithmetic" k2="-1" k3="1"/>
<feColorMatrix type="matrix" values="0 0 0 0 1 0 0 0 0 1 0 0 0 0 1 0 0 0 0.4 0"/>
<feBlend mode="hard-light" in2="effect1_innerShadow_0_1" result="effect2_innerShadow_0_1"/>
<feGaussianBlur stdDeviation="0.4" result="effect3_foregroundBlur_0_1"/>
</filter>
<filter id="filter22_iif_0_1" x="588.2" y="340.2" width="9.6" height="9.6" filterUnits="userSpaceOnUse" color-interpolation-filters="sRGB">
<feFlood flood-opacity="0" result="BackgroundImageFix"/>
<feBlend mode="normal" in="SourceGraphic" in2="BackgroundImageFix" result="shape"/>
<feColorMatrix in="SourceAlpha" type="matrix" values="0 0 0 0 0 0 0 0 0 0 0 0 0 0 0 0 0 0 127 0" result="hardAlpha"/>
<feOffset dy="-1"/>
<feComposite in2="hardAlpha" operator="arithmetic" k2="-1" k3="1"/>
<feColorMatrix type="matrix" values="0 0 0 0 0 0 0 0 0 0 0 0 0 0 0 0 0 0 0.4 0"/>
<feBlend mode="normal" in2="shape" result="effect1_innerShadow_0_1"/>
<feColorMatrix in="SourceAlpha" type="matrix" values="0 0 0 0 0 0 0 0 0 0 0 0 0 0 0 0 0 0 127 0" result="hardAlpha"/>
<feOffset dy="1"/>
<feComposite in2="hardAlpha" operator="arithmetic" k2="-1" k3="1"/>
<feColorMatrix type="matrix" values="0 0 0 0 1 0 0 0 0 1 0 0 0 0 1 0 0 0 0.4 0"/>
<feBlend mode="hard-light" in2="effect1_innerShadow_0_1" result="effect2_innerShadow_0_1"/>
<feGaussianBlur stdDeviation="0.4" result="effect3_foregroundBlur_0_1"/>
</filter>
<filter id="filter23_iif_0_1" x="578.2" y="340.2" width="9.6" height="9.6" filterUnits="userSpaceOnUse" color-interpolation-filters="sRGB">
<feFlood flood-opacity="0" result="BackgroundImageFix"/>
<feBlend mode="normal" in="SourceGraphic" in2="BackgroundImageFix" result="shape"/>
<feColorMatrix in="SourceAlpha" type="matrix" values="0 0 0 0 0 0 0 0 0 0 0 0 0 0 0 0 0 0 127 0" result="hardAlpha"/>
<feOffset dy="-1"/>
<feComposite in2="hardAlpha" operator="arithmetic" k2="-1" k3="1"/>
<feColorMatrix type="matrix" values="0 0 0 0 0 0 0 0 0 0 0 0 0 0 0 0 0 0 0.4 0"/>
<feBlend mode="normal" in2="shape" result="effect1_innerShadow_0_1"/>
<feColorMatrix in="SourceAlpha" type="matrix" values="0 0 0 0 0 0 0 0 0 0 0 0 0 0 0 0 0 0 127 0" result="hardAlpha"/>
<feOffset dy="1"/>
<feComposite in2="hardAlpha" operator="arithmetic" k2="-1" k3="1"/>
<feColorMatrix type="matrix" values="0 0 0 0 1 0 0 0 0 1 0 0 0 0 1 0 0 0 0.4 0"/>
<feBlend mode="hard-light" in2="effect1_innerShadow_0_1" result="effect2_innerShadow_0_1"/>
<feGaussianBlur stdDeviation="0.4" result="effect3_foregroundBlur_0_1"/>
</filter>
<filter id="filter24_iif_0_1" x="578.2" y="350.2" width="9.6" height="9.6" filterUnits="userSpaceOnUse" color-interpolation-filters="sRGB">
<feFlood flood-opacity="0" result="BackgroundImageFix"/>
<feBlend mode="normal" in="SourceGraphic" in2="BackgroundImageFix" result="shape"/>
<feColorMatrix in="SourceAlpha" type="matrix" values="0 0 0 0 0 0 0 0 0 0 0 0 0 0 0 0 0 0 127 0" result="hardAlpha"/>
<feOffset dy="-1"/>
<feComposite in2="hardAlpha" operator="arithmetic" k2="-1" k3="1"/>
<feColorMatrix type="matrix" values="0 0 0 0 0 0 0 0 0 0 0 0 0 0 0 0 0 0 0.4 0"/>
<feBlend mode="normal" in2="shape" result="effect1_innerShadow_0_1"/>
<feColorMatrix in="SourceAlpha" type="matrix" values="0 0 0 0 0 0 0 0 0 0 0 0 0 0 0 0 0 0 127 0" result="hardAlpha"/>
<feOffset dy="1"/>
<feComposite in2="hardAlpha" operator="arithmetic" k2="-1" k3="1"/>
<feColorMatrix type="matrix" values="0 0 0 0 1 0 0 0 0 1 0 0 0 0 1 0 0 0 0.4 0"/>
<feBlend mode="hard-light" in2="effect1_innerShadow_0_1" result="effect2_innerShadow_0_1"/>
<feGaussianBlur stdDeviation="0.4" result="effect3_foregroundBlur_0_1"/>
</filter>
<filter id="filter25_i_0_1" x="365.014" y="207.76" width="11.9712" height="58.4793" filterUnits="userSpaceOnUse" color-interpolation-filters="sRGB">
<feFlood flood-opacity="0" result="BackgroundImageFix"/>
<feBlend mode="normal" in="SourceGraphic" in2="BackgroundImageFix" result="shape"/>
<feColorMatrix in="SourceAlpha" type="matrix" values="0 0 0 0 0 0 0 0 0 0 0 0 0 0 0 0 0 0 127 0" result="hardAlpha"/>
<feOffset dx="-1"/>
<feGaussianBlur stdDeviation="2"/>
<feComposite in2="hardAlpha" operator="arithmetic" k2="-1" k3="1"/>
<feColorMatrix type="matrix" values="0 0 0 0 0 0 0 0 0 0 0 0 0 0 0 0 0 0 0.4 0"/>
<feBlend mode="normal" in2="shape" result="effect1_innerShadow_0_1"/>
</filter>
<filter id="filter26_i_0_1" x="423.014" y="205.76" width="11.9712" height="58.4793" filterUnits="userSpaceOnUse" color-interpolation-filters="sRGB">
<feFlood flood-opacity="0" result="BackgroundImageFix"/>
<feBlend mode="normal" in="SourceGraphic" in2="BackgroundImageFix" result="shape"/>
<feColorMatrix in="SourceAlpha" type="matrix" values="0 0 0 0 0 0 0 0 0 0 0 0 0 0 0 0 0 0 127 0" result="hardAlpha"/>
<feOffset dx="1"/>
<feGaussianBlur stdDeviation="2"/>
<feComposite in2="hardAlpha" operator="arithmetic" k2="-1" k3="1"/>
<feColorMatrix type="matrix" values="0 0 0 0 0 0 0 0 0 0 0 0 0 0 0 0 0 0 0.4 0"/>
<feBlend mode="normal" in2="shape" result="effect1_innerShadow_0_1"/>
</filter>
<filter id="filter27_ii_0_1" x="313" y="203" width="170" height="68" filterUnits="userSpaceOnUse" color-interpolation-filters="sRGB">
<feFlood flood-opacity="0" result="BackgroundImageFix"/>
<feBlend mode="normal" in="SourceGraphic" in2="BackgroundImageFix" result="shape"/>
<feColorMatrix in="SourceAlpha" type="matrix" values="0 0 0 0 0 0 0 0 0 0 0 0 0 0 0 0 0 0 127 0" result="hardAlpha"/>
<feOffset dy="-2"/>
<feGaussianBlur stdDeviation="2"/>
<feComposite in2="hardAlpha" operator="arithmetic" k2="-1" k3="1"/>
<feColorMatrix type="matrix" values="0 0 0 0 0 0 0 0 0 0 0 0 0 0 0 0 0 0 0.4 0"/>
<feBlend mode="normal" in2="shape" result="effect1_innerShadow_0_1"/>
<feColorMatrix in="SourceAlpha" type="matrix" values="0 0 0 0 0 0 0 0 0 0 0 0 0 0 0 0 0 0 127 0" result="hardAlpha"/>
<feOffset dy="2"/>
<feGaussianBlur stdDeviation="2"/>
<feComposite in2="hardAlpha" operator="arithmetic" k2="-1" k3="1"/>
<feColorMatrix type="matrix" values="0 0 0 0 1 0 0 0 0 1 0 0 0 0 1 0 0 0 0.4 0"/>
<feBlend mode="hard-light" in2="effect1_innerShadow_0_1" result="effect2_innerShadow_0_1"/>
</filter>
<filter id="filter28_din_0_1" x="35.5998" y="0.599878" width="730.504" height="730.119" filterUnits="userSpaceOnUse" color-interpolation-filters="sRGB">
<feFlood flood-opacity="0" result="BackgroundImageFix"/>
<feColorMatrix in="SourceAlpha" type="matrix" values="0 0 0 0 0 0 0 0 0 0 0 0 0 0 0 0 0 0 127 0" result="hardAlpha"/>
<feOffset dy="-1"/>
<feGaussianBlur stdDeviation="0.2"/>
<feComposite in2="hardAlpha" operator="out"/>
<feColorMatrix type="matrix" values="0 0 0 0 1 0 0 0 0 1 0 0 0 0 1 0 0 0 1 0"/>
<feBlend mode="normal" in2="BackgroundImageFix" result="effect1_dropShadow_0_1"/>
<feBlend mode="normal" in="SourceGraphic" in2="BackgroundImageFix" result="shape"/>
<feColorMatrix in="SourceAlpha" type="matrix" values="0 0 0 0 0 0 0 0 0 0 0 0 0 0 0 0 0 0 127 0" result="hardAlpha"/>
<feOffset dy="4"/>
<feGaussianBlur stdDeviation="2"/>
<feComposite in2="hardAlpha" operator="arithmetic" k2="-1" k3="1"/>
<feColorMatrix type="matrix" values="0 0 0 0 0.866667 0 0 0 0 0.866667 0 0 0 0 0.866667 0 0 0 1 0"/>
<feBlend mode="hard-light" in2="shape" result="effect2_innerShadow_0_1"/>
<feTurbulence type="fractalNoise" baseFrequency="1.25 1.25" stitchTiles="stitch" numOctaves="3" result="noise" seed="6310" />
<feColorMatrix in="noise" type="luminanceToAlpha" result="alphaNoise" />
<feComponentTransfer in="alphaNoise" result="coloredNoise1">
<feFuncA type="discrete" tableValues="0 0 0 0 0 0 0 0 0 0 0 0 0 0 0 0 0 0 0 0 0 1 1 1 1 1 1 1 1 1 0 0 0 0 0 0 0 0 0 0 0 0 0 0 0 0 0 0 0 0 0 0 0 0 0 0 0 0 0 0 0 0 0 0 0 0 0 0 0 0 0 0 0 0 0 0 0 0 0 0 0 0 0 0 0 0 0 0 0 0 0 0 0 0 0 0 0 0 0 0 "/>
</feComponentTransfer>
<feComposite operator="in" in2="effect2_innerShadow_0_1" in="coloredNoise1" result="noise1Clipped" />
<feComponentTransfer in="alphaNoise" result="coloredNoise2">
<feFuncA type="discrete" tableValues="0 0 0 0 0 0 0 0 0 0 0 0 0 0 0 0 0 0 0 0 0 0 0 0 0 0 0 0 0 0 0 0 0 0 0 0 0 0 0 0 0 0 0 0 0 0 0 0 0 0 0 0 0 0 0 0 0 0 0 0 0 0 0 0 0 0 0 0 0 0 1 1 1 1 1 1 1 1 1 0 0 0 0 0 0 0 0 0 0 0 0 0 0 0 0 0 0 0 0 0 "/>
</feComponentTransfer>
<feComposite operator="in" in2="effect2_innerShadow_0_1" in="coloredNoise2" result="noise2Clipped" />
<feFlood flood-color="rgba(255, 255, 255, 0.25)" result="color1Flood" />
<feComposite operator="in" in2="noise1Clipped" in="color1Flood" result="color1" />
<feFlood flood-color="rgba(255, 255, 255, 0.25)" result="color2Flood" />
<feComposite operator="in" in2="noise2Clipped" in="color2Flood" result="color2" />
<feMerge result="effect3_noise_0_1">
<feMergeNode in="effect2_innerShadow_0_1" />
<feMergeNode in="color1" />
<feMergeNode in="color2" />
</feMerge>
<feBlend mode="normal" in="effect3_noise_0_1" in2="effect1_dropShadow_0_1" result="effect3_noise_0_1"/>
</filter>
<filter id="filter29_ii_0_1" x="2" y="374" width="800" height="20" filterUnits="userSpaceOnUse" color-interpolation-filters="sRGB">
<feFlood flood-opacity="0" result="BackgroundImageFix"/>
<feBlend mode="normal" in="SourceGraphic" in2="BackgroundImageFix" result="shape"/>
<feColorMatrix in="SourceAlpha" type="matrix" values="0 0 0 0 0 0 0 0 0 0 0 0 0 0 0 0 0 0 127 0" result="hardAlpha"/>
<feOffset dy="-2"/>
<feGaussianBlur stdDeviation="2"/>
<feComposite in2="hardAlpha" operator="arithmetic" k2="-1" k3="1"/>
<feColorMatrix type="matrix" values="0 0 0 0 0 0 0 0 0 0 0 0 0 0 0 0 0 0 0.4 0"/>
<feBlend mode="normal" in2="shape" result="effect1_innerShadow_0_1"/>
<feColorMatrix in="SourceAlpha" type="matrix" values="0 0 0 0 0 0 0 0 0 0 0 0 0 0 0 0 0 0 127 0" result="hardAlpha"/>
<feOffset dy="2"/>
<feGaussianBlur stdDeviation="2"/>
<feComposite in2="hardAlpha" operator="arithmetic" k2="-1" k3="1"/>
<feColorMatrix type="matrix" values="0 0 0 0 0.8 0 0 0 0 0.8 0 0 0 0 0.8 0 0 0 0.4 0"/>
<feBlend mode="hard-light" in2="effect1_innerShadow_0_1" result="effect2_innerShadow_0_1"/>
</filter>
<linearGradient id="paint0_linear_0_1" x1="398.5" y1="261" x2="398.5" y2="378.5" gradientUnits="userSpaceOnUse">
<stop stop-color="#2F6B88"/>
<stop offset="0.697115" stop-color="#1A3F51"/>
</linearGradient>
<linearGradient id="paint1_linear_0_1" x1="595.634" y1="295.419" x2="460.81" y2="344.019" gradientUnits="userSpaceOnUse">
<stop stop-color="#2F6B88"/>
<stop offset="0.697115" stop-color="#1A3F51"/>
</linearGradient>
<linearGradient id="paint2_linear_0_1" x1="631" y1="346.396" x2="640.119" y2="338.596" gradientUnits="userSpaceOnUse">
<stop stop-color="#2F6B88"/>
<stop offset="0.697115" stop-color="#1A3F51"/>
</linearGradient>
<linearGradient id="paint3_linear_0_1" x1="203.31" y1="295.019" x2="338.134" y2="343.62" gradientUnits="userSpaceOnUse">
<stop stop-color="#2F6B88"/>
<stop offset="0.697115" stop-color="#1A3F51"/>
</linearGradient>
<linearGradient id="paint4_linear_0_1" x1="169.119" y1="346.396" x2="160" y2="338.596" gradientUnits="userSpaceOnUse">
<stop stop-color="#2F6B88"/>
<stop offset="0.697115" stop-color="#1A3F51"/>
</linearGradient>
<radialGradient id="paint5_radial_0_1" cx="0" cy="0" r="1" gradientUnits="userSpaceOnUse" gradientTransform="translate(400.721 227.667) rotate(90) scale(186 365)">
<stop stop-color="white" stop-opacity="0.87"/>
<stop offset="0.000488281" stop-color="white" stop-opacity="0.87"/>
<stop offset="0.000976562" stop-color="white" stop-opacity="0.87"/>
<stop offset="0.00195312" stop-color="white" stop-opacity="0.87"/>
<stop offset="0.00390625" stop-color="white" stop-opacity="0.87"/>
<stop offset="0.0078125" stop-color="#FEFEFE" stop-opacity="0.87"/>
<stop offset="0.015625" stop-color="#FDFDFD" stop-opacity="0.87"/>
<stop offset="0.03125" stop-color="#FCFCFC" stop-opacity="0.87"/>
<stop offset="0.232442" stop-color="#F9F9F9" stop-opacity="0.87"/>
<stop offset="0.369134" stop-color="#F2F2F2" stop-opacity="0.87"/>
<stop offset="0.578193" stop-color="#E6E6E6" stop-opacity="0.87"/>
<stop offset="0.755088" stop-color="#CCCCCC" stop-opacity="0.87"/>
<stop offset="1" stop-color="#999999" stop-opacity="0.87"/>
</radialGradient>
</defs>
</svg>
